solid Coil winder
facet normal -0.0 -0.0 1.0
  outer loop
    vertex -3.6418501327001653 -57.88555024883973 7.999999999999999
    vertex -23.64185013270019 -3.641850132700432 7.999999999999999
    vertex -57.88555024883973 -3.641850132700327 7.999999999999999
  endloop
endfacet
facet normal -0.0 -0.0 1.0
  outer loop
    vertex -23.64185013270019 -3.641850132700432 7.999999999999999
    vertex -3.6418501327001653 -57.88555024883973 7.999999999999999
    vertex -23.641850132700185 3.6418501327000756 7.999999999999999
  endloop
endfacet
facet normal -0.0 -0.0 1.0
  outer loop
    vertex -23.641850132700185 3.6418501327000756 7.999999999999999
    vertex -3.6418501327001653 -57.88555024883973 7.999999999999999
    vertex -7.0765537626731385 -3.6418501327004833 7.999999999999999
  endloop
endfacet
facet normal -0.0 -0.0 1.0
  outer loop
    vertex -23.641850132700185 3.6418501327000756 7.999999999999999
    vertex -7.0765537626731385 -3.6418501327004833 7.999999999999999
    vertex -7.076553762673241 3.6418501327000956 7.999999999999999
  endloop
endfacet
facet normal -0.0 -0.0 1.0
  outer loop
    vertex -7.0765537626731385 -3.6418501327004833 7.999999999999999
    vertex -3.6418501327001653 -57.88555024883973 7.999999999999999
    vertex -6.928203230275529 -4.000000000000072 7.999999999999999
  endloop
endfacet
facet normal -0.0 -0.0 1.0
  outer loop
    vertex -6.928203230275529 -4.000000000000072 7.999999999999999
    vertex -3.6418501327001653 -57.88555024883973 7.999999999999999
    vertex -5.656854249492401 -5.65685424949245 7.999999999999999
  endloop
endfacet
facet normal -0.0 -0.0 1.0
  outer loop
    vertex -5.656854249492401 -5.65685424949245 7.999999999999999
    vertex -3.6418501327001653 -57.88555024883973 7.999999999999999
    vertex -4.0000000000000195 -6.928203230275578 7.999999999999999
  endloop
endfacet
facet normal -0.0 -0.0 1.0
  outer loop
    vertex -4.0000000000000195 -6.928203230275578 7.999999999999999
    vertex -3.6418501327001653 -57.88555024883973 7.999999999999999
    vertex -3.64185013270018 -23.64185013270049 7.999999999999999
  endloop
endfacet
facet normal -0.0 -0.0 1.0
  outer loop
    vertex -4.0000000000000195 -6.928203230275578 7.999999999999999
    vertex -3.64185013270018 -23.64185013270049 7.999999999999999
    vertex -3.641850132700187 -7.076553762673286 7.999999999999999
  endloop
endfacet
facet normal -0.0 -0.0 1.0
  outer loop
    vertex 57.88555024883971 -3.6418501327006827 7.999999999999999
    vertex 3.641850132700145 -23.641850132700515 7.999999999999999
    vertex 3.6418501327001436 -57.88555024883973 7.999999999999999
  endloop
endfacet
facet normal -0.0 -0.0 1.0
  outer loop
    vertex 3.641850132700145 -23.641850132700515 7.999999999999999
    vertex 57.88555024883971 -3.6418501327006827 7.999999999999999
    vertex 3.9999999999999774 -6.928203230275578 7.999999999999999
  endloop
endfacet
facet normal -0.0 -0.0 1.0
  outer loop
    vertex 3.9999999999999774 -6.928203230275578 7.999999999999999
    vertex 57.88555024883971 -3.6418501327006827 7.999999999999999
    vertex 5.656854249492357 -5.656854249492449 7.999999999999999
  endloop
endfacet
facet normal -0.0 -0.0 1.0
  outer loop
    vertex 5.656854249492357 -5.656854249492449 7.999999999999999
    vertex 57.88555024883971 -3.6418501327006827 7.999999999999999
    vertex 6.928203230275485 -4.000000000000068 7.999999999999999
  endloop
endfacet
facet normal -0.0 -0.0 1.0
  outer loop
    vertex 6.928203230275485 -4.000000000000068 7.999999999999999
    vertex 57.88555024883971 -3.6418501327006827 7.999999999999999
    vertex 7.0765537626730834 -3.641850132700527 7.999999999999999
  endloop
endfacet
facet normal -0.0 -0.0 1.0
  outer loop
    vertex 7.0765537626730834 -3.641850132700527 7.999999999999999
    vertex 57.88555024883971 -3.6418501327006827 7.999999999999999
    vertex 23.641850132700146 -3.641850132700578 7.999999999999999
  endloop
endfacet
facet normal -0.0 -0.0 1.0
  outer loop
    vertex 7.0765537626730834 -3.641850132700527 7.999999999999999
    vertex 23.641850132700146 -3.641850132700578 7.999999999999999
    vertex 7.076553762673191 3.6418501327001125 7.999999999999999
  endloop
endfacet
facet normal -0.0 -0.0 1.0
  outer loop
    vertex 7.076553762673191 3.6418501327001125 7.999999999999999
    vertex 23.641850132700146 -3.641850132700578 7.999999999999999
    vertex 23.641850132700142 3.641850132700133 7.999999999999999
  endloop
endfacet
facet normal -0.0 -0.0 1.0
  outer loop
    vertex -23.641850132700185 3.6418501327000756 7.999999999999999
    vertex -3.6418501327002146 57.88555024883973 7.999999999999999
    vertex -57.88555024883974 3.641850132700033 7.999999999999999
  endloop
endfacet
facet normal -0.0 -0.0 1.0
  outer loop
    vertex -3.6418501327002146 57.88555024883973 7.999999999999999
    vertex -23.641850132700185 3.6418501327000756 7.999999999999999
    vertex -7.076553762673241 3.6418501327000956 7.999999999999999
  endloop
endfacet
facet normal -0.0 -0.0 1.0
  outer loop
    vertex -3.6418501327002146 57.88555024883973 7.999999999999999
    vertex -7.076553762673241 3.6418501327000956 7.999999999999999
    vertex -6.928203230275532 3.9999999999999263 7.999999999999999
  endloop
endfacet
facet normal -0.0 -0.0 1.0
  outer loop
    vertex -3.6418501327002146 57.88555024883973 7.999999999999999
    vertex -6.928203230275532 3.9999999999999263 7.999999999999999
    vertex -5.656854249492405 5.656854249492305 7.999999999999999
  endloop
endfacet
facet normal -0.0 -0.0 1.0
  outer loop
    vertex -3.6418501327002146 57.88555024883973 7.999999999999999
    vertex -5.656854249492405 5.656854249492305 7.999999999999999
    vertex -4.000000000000025 6.928203230275434 7.999999999999999
  endloop
endfacet
facet normal -0.0 -0.0 1.0
  outer loop
    vertex -3.6418501327002146 57.88555024883973 7.999999999999999
    vertex -4.000000000000025 6.928203230275434 7.999999999999999
    vertex -3.6418501327002013 23.6418501327001 7.999999999999999
  endloop
endfacet
facet normal -0.0 -0.0 1.0
  outer loop
    vertex -3.6418501327002013 23.6418501327001 7.999999999999999
    vertex -4.000000000000025 6.928203230275434 7.999999999999999
    vertex -3.641850132700193 7.076553762673153 7.999999999999999
  endloop
endfacet
facet normal -0.0 -0.0 1.0
  outer loop
    vertex -3.6418501327002013 23.6418501327001 7.999999999999999
    vertex -3.641850132700193 7.076553762673153 7.999999999999999
    vertex 3.641850132700144 23.641850132700107 7.999999999999999
  endloop
endfacet
facet normal -0.0 -0.0 1.0
  outer loop
    vertex 3.641850132700144 23.641850132700107 7.999999999999999
    vertex -3.641850132700193 7.076553762673153 7.999999999999999
    vertex 3.641850132700144 7.076553762673147 7.999999999999999
  endloop
endfacet
facet normal -0.0 -0.0 1.0
  outer loop
    vertex 3.641850132700144 23.641850132700107 7.999999999999999
    vertex 3.641850132700144 7.076553762673147 7.999999999999999
    vertex 3.9999999999999707 6.92820323027544 7.999999999999999
  endloop
endfacet
facet normal -0.0 -0.0 1.0
  outer loop
    vertex 3.641850132700144 23.641850132700107 7.999999999999999
    vertex 3.9999999999999707 6.92820323027544 7.999999999999999
    vertex 3.641850132700145 57.88555024883973 7.999999999999999
  endloop
endfacet
facet normal -0.0 -0.0 1.0
  outer loop
    vertex 3.641850132700145 57.88555024883973 7.999999999999999
    vertex 3.9999999999999707 6.92820323027544 7.999999999999999
    vertex 57.88555024883973 3.6418501327001747 7.999999999999999
  endloop
endfacet
facet normal -0.0 -0.0 1.0
  outer loop
    vertex 57.88555024883973 3.6418501327001747 7.999999999999999
    vertex 3.9999999999999707 6.92820323027544 7.999999999999999
    vertex 5.656854249492355 5.6568542494923095 7.999999999999999
  endloop
endfacet
facet normal -0.0 -0.0 1.0
  outer loop
    vertex 57.88555024883973 3.6418501327001747 7.999999999999999
    vertex 5.656854249492355 5.6568542494923095 7.999999999999999
    vertex 6.928203230275482 3.999999999999932 7.999999999999999
  endloop
endfacet
facet normal -0.0 -0.0 1.0
  outer loop
    vertex 57.88555024883973 3.6418501327001747 7.999999999999999
    vertex 6.928203230275482 3.999999999999932 7.999999999999999
    vertex 23.641850132700142 3.641850132700133 7.999999999999999
  endloop
endfacet
facet normal -0.0 -0.0 1.0
  outer loop
    vertex 23.641850132700142 3.641850132700133 7.999999999999999
    vertex 6.928203230275482 3.999999999999932 7.999999999999999
    vertex 7.076553762673191 3.6418501327001125 7.999999999999999
  endloop
endfacet
facet normal -0.0 -0.0 1.0
  outer loop
    vertex -3.64185013270018 -23.64185013270049 7.999999999999999
    vertex 3.641850132700144 -7.076553762673292 7.999999999999999
    vertex -3.641850132700187 -7.076553762673286 7.999999999999999
  endloop
endfacet
facet normal -0.0 -0.0 1.0
  outer loop
    vertex 3.641850132700144 -7.076553762673292 7.999999999999999
    vertex -3.64185013270018 -23.64185013270049 7.999999999999999
    vertex 3.641850132700145 -23.641850132700515 7.999999999999999
  endloop
endfacet
facet normal -0.0 -0.0 1.0
  outer loop
    vertex 3.641850132700144 -7.076553762673292 7.999999999999999
    vertex 3.641850132700145 -23.641850132700515 7.999999999999999
    vertex 3.9999999999999774 -6.928203230275578 7.999999999999999
  endloop
endfacet
facet normal 0.3826834323650902 -0.9238795325112867 -3.369790489300111e-17
  outer loop
    vertex -0.6729295172665773 2.5114071483515064 7.999999999999999
    vertex -1.3000000000000231 2.2516660498394696 0.0
    vertex -0.6729295172665772 2.5114071483515064 0.0
  endloop
endfacet
facet normal 0.3826834323650902 -0.9238795325112867 -3.369790489300111e-17
  outer loop
    vertex -1.3000000000000231 2.2516660498394696 0.0
    vertex -0.6729295172665773 2.5114071483515064 7.999999999999999
    vertex -1.3000000000000234 2.2516660498394687 7.999999999999999
  endloop
endfacet
facet normal 0.6087614290087207 -0.7933533402912352 -1.4723360359668472e-17
  outer loop
    vertex -1.3000000000000234 2.2516660498394687 7.999999999999999
    vertex -1.8384776310850464 1.8384776310849524 0.0
    vertex -1.3000000000000231 2.2516660498394696 0.0
  endloop
endfacet
facet normal 0.6087614290087207 -0.7933533402912352 -1.4723360359668472e-17
  outer loop
    vertex -1.8384776310850464 1.8384776310849524 0.0
    vertex -1.3000000000000234 2.2516660498394687 7.999999999999999
    vertex -1.8384776310850466 1.8384776310849524 7.999999999999999
  endloop
endfacet
facet normal 0.7933533402912352 -0.6087614290087207 1.068838957406663e-17
  outer loop
    vertex -2.2516660498395633 1.2999999999999292 0.0
    vertex -1.8384776310850466 1.8384776310849524 7.999999999999999
    vertex -2.2516660498395633 1.299999999999929 7.999999999999999
  endloop
endfacet
facet normal 0.7933533402912352 -0.6087614290087207 1.068838957406663e-17
  outer loop
    vertex -1.8384776310850466 1.8384776310849524 7.999999999999999
    vertex -2.2516660498395633 1.2999999999999292 0.0
    vertex -1.8384776310850464 1.8384776310849524 0.0
  endloop
endfacet
facet normal 0.9238795325112867 -0.3826834323650898 -0.0
  outer loop
    vertex -2.2516660498395633 1.2999999999999292 0.0
    vertex -2.5114071483516 0.6729295172664835 7.999999999999999
    vertex -2.5114071483516 0.6729295172664833 0.0
  endloop
endfacet
facet normal 0.9238795325112867 -0.3826834323650898 -0.0
  outer loop
    vertex -2.5114071483516 0.6729295172664835 7.999999999999999
    vertex -2.2516660498395633 1.2999999999999292 0.0
    vertex -2.2516660498395633 1.299999999999929 7.999999999999999
  endloop
endfacet
facet normal 0.9914448613738105 -0.13052619222005135 -2.0501768889794687e-17
  outer loop
    vertex -2.6000000000000227 -7.069962118876657e-14 0.0
    vertex -2.5114071483516 0.6729295172664835 7.999999999999999
    vertex -2.6000000000000223 -7.072674609382017e-14 7.999999999999999
  endloop
endfacet
facet normal 0.9914448613738105 -0.13052619222005135 -2.0501768889794687e-17
  outer loop
    vertex -2.5114071483516 0.6729295172664835 7.999999999999999
    vertex -2.6000000000000227 -7.069962118876657e-14 0.0
    vertex -2.5114071483516 0.6729295172664833 0.0
  endloop
endfacet
facet normal 0.9914448613738105 0.13052619222005124 -0.0
  outer loop
    vertex -2.6000000000000227 -7.069962118876657e-14 0.0
    vertex -2.5114071483516 -0.6729295172666268 7.999999999999999
    vertex -2.5114071483516 -0.6729295172666268 0.0
  endloop
endfacet
facet normal 0.9914448613738105 0.13052619222005124 -0.0
  outer loop
    vertex -2.5114071483516 -0.6729295172666268 7.999999999999999
    vertex -2.6000000000000227 -7.069962118876657e-14 0.0
    vertex -2.6000000000000223 -7.072674609382017e-14 7.999999999999999
  endloop
endfacet
facet normal 0.9238795325112865 0.38268343236509034 6.159463887910627e-17
  outer loop
    vertex -2.5114071483516 -0.6729295172666268 0.0
    vertex -2.2516660498395633 -1.300000000000072 7.999999999999999
    vertex -2.2516660498395624 -1.300000000000072 0.0
  endloop
endfacet
facet normal 0.9238795325112865 0.38268343236509034 6.159463887910627e-17
  outer loop
    vertex -2.2516660498395633 -1.300000000000072 7.999999999999999
    vertex -2.5114071483516 -0.6729295172666268 0.0
    vertex -2.5114071483516 -0.6729295172666268 7.999999999999999
  endloop
endfacet
facet normal 0.7933533402912349 0.6087614290087209 6.533226266452385e-17
  outer loop
    vertex -1.838477631085046 -1.838477631085095 0.0
    vertex -2.2516660498395633 -1.300000000000072 7.999999999999999
    vertex -1.8384776310850464 -1.8384776310850952 7.999999999999999
  endloop
endfacet
facet normal 0.7933533402912349 0.6087614290087209 6.533226266452385e-17
  outer loop
    vertex -2.2516660498395633 -1.300000000000072 7.999999999999999
    vertex -1.838477631085046 -1.838477631085095 0.0
    vertex -2.2516660498395624 -1.300000000000072 0.0
  endloop
endfacet
facet normal 0.6087614290087202 0.7933533402912355 3.7302064727925795e-17
  outer loop
    vertex -1.8384776310850464 -1.8384776310850952 7.999999999999999
    vertex -1.3000000000000211 -2.2516660498396126 0.0
    vertex -1.838477631085046 -1.838477631085095 0.0
  endloop
endfacet
facet normal 0.6087614290087202 0.7933533402912355 3.7302064727925795e-17
  outer loop
    vertex -1.3000000000000211 -2.2516660498396126 0.0
    vertex -1.8384776310850464 -1.8384776310850952 7.999999999999999
    vertex -1.3000000000000211 -2.2516660498396126 7.999999999999999
  endloop
endfacet
facet normal 0.3826834323650893 0.9238795325112871 2.6050483027654286e-17
  outer loop
    vertex -1.3000000000000211 -2.2516660498396126 7.999999999999999
    vertex -0.6729295172665756 -2.511407148351649 0.0
    vertex -1.3000000000000211 -2.2516660498396126 0.0
  endloop
endfacet
facet normal 0.3826834323650893 0.9238795325112871 2.6050483027654286e-17
  outer loop
    vertex -0.6729295172665756 -2.511407148351649 0.0
    vertex -1.3000000000000211 -2.2516660498396126 7.999999999999999
    vertex -0.6729295172665757 -2.5114071483516494 7.999999999999999
  endloop
endfacet
facet normal 0.13052619222005102 0.9914448613738105 2.2213662012427888e-17
  outer loop
    vertex -0.6729295172665757 -2.5114071483516494 7.999999999999999
    vertex -2.2236931851526635e-14 -2.600000000000071 0.0
    vertex -0.6729295172665756 -2.511407148351649 0.0
  endloop
endfacet
facet normal 0.13052619222005102 0.9914448613738105 2.2213662012427888e-17
  outer loop
    vertex -2.2236931851526635e-14 -2.600000000000071 0.0
    vertex -0.6729295172665757 -2.5114071483516494 7.999999999999999
    vertex -2.2223009828290183e-14 -2.600000000000071 7.999999999999999
  endloop
endfacet
facet normal -0.13052619222005213 0.9914448613738105 -2.1671865377978425e-17
  outer loop
    vertex -2.2223009828290183e-14 -2.600000000000071 7.999999999999999
    vertex 0.6729295172665333 -2.511407148351648 0.0
    vertex -2.2236931851526635e-14 -2.600000000000071 0.0
  endloop
endfacet
facet normal -0.13052619222005213 0.9914448613738105 -2.1671865377978425e-17
  outer loop
    vertex 0.6729295172665333 -2.511407148351648 0.0
    vertex -2.2223009828290183e-14 -2.600000000000071 7.999999999999999
    vertex 0.6729295172665333 -2.511407148351648 7.999999999999999
  endloop
endfacet
facet normal -0.3826834323650901 0.9238795325112867 -1.2839683944217252e-17
  outer loop
    vertex 0.6729295172665333 -2.511407148351648 7.999999999999999
    vertex 1.2999999999999785 -2.251666049839611 0.0
    vertex 0.6729295172665333 -2.511407148351648 0.0
  endloop
endfacet
facet normal -0.3826834323650901 0.9238795325112867 -1.2839683944217252e-17
  outer loop
    vertex 1.2999999999999785 -2.251666049839611 0.0
    vertex 0.6729295172665333 -2.511407148351648 7.999999999999999
    vertex 1.299999999999979 -2.251666049839611 7.999999999999999
  endloop
endfacet
facet normal -0.6087614290087209 0.7933533402912352 5.2025425087594267e-17
  outer loop
    vertex 1.299999999999979 -2.251666049839611 7.999999999999999
    vertex 1.8384776310850022 -1.8384776310850934 0.0
    vertex 1.2999999999999785 -2.251666049839611 0.0
  endloop
endfacet
facet normal -0.6087614290087209 0.7933533402912352 5.2025425087594267e-17
  outer loop
    vertex 1.8384776310850022 -1.8384776310850934 0.0
    vertex 1.299999999999979 -2.251666049839611 7.999999999999999
    vertex 1.838477631085002 -1.8384776310850945 7.999999999999999
  endloop
endfacet
facet normal -0.7933533402912357 0.60876142900872 2.785851988650611e-17
  outer loop
    vertex 2.251666049839518 -1.3000000000000707 7.999999999999999
    vertex 1.8384776310850022 -1.8384776310850934 0.0
    vertex 1.838477631085002 -1.8384776310850945 7.999999999999999
  endloop
endfacet
facet normal -0.7933533402912357 0.60876142900872 2.785851988650611e-17
  outer loop
    vertex 1.8384776310850022 -1.8384776310850934 0.0
    vertex 2.251666049839518 -1.3000000000000707 7.999999999999999
    vertex 2.2516660498395185 -1.30000000000007 0.0
  endloop
endfacet
facet normal -0.9238795325112868 0.38268343236508967 -4.474656143168433e-18
  outer loop
    vertex 2.5114071483515557 -0.6729295172666238 7.999999999999999
    vertex 2.2516660498395185 -1.30000000000007 0.0
    vertex 2.251666049839518 -1.3000000000000707 7.999999999999999
  endloop
endfacet
facet normal -0.9238795325112868 0.38268343236508967 -4.474656143168433e-18
  outer loop
    vertex 2.2516660498395185 -1.30000000000007 0.0
    vertex 2.5114071483515557 -0.6729295172666238 7.999999999999999
    vertex 2.5114071483515557 -0.6729295172666236 0.0
  endloop
endfacet
facet normal -0.9914448613738105 0.1305261922200513 1.711893122633199e-18
  outer loop
    vertex 2.5999999999999774 -7.036814635913717e-14 7.999999999999999
    vertex 2.5114071483515557 -0.6729295172666236 0.0
    vertex 2.5114071483515557 -0.6729295172666238 7.999999999999999
  endloop
endfacet
facet normal -0.9914448613738105 0.1305261922200513 1.711893122633199e-18
  outer loop
    vertex 2.5114071483515557 -0.6729295172666236 0.0
    vertex 2.5999999999999774 -7.036814635913717e-14 7.999999999999999
    vertex 2.5999999999999774 -7.038121302098826e-14 0.0
  endloop
endfacet
facet normal -0.9914448613738105 -0.13052619222005207 0.0
  outer loop
    vertex 2.5999999999999774 -7.036814635913717e-14 7.999999999999999
    vertex 2.5114071483515548 0.672929517266484 0.0
    vertex 2.5999999999999774 -7.038121302098826e-14 0.0
  endloop
endfacet
facet normal -0.9914448613738105 -0.13052619222005207 0.0
  outer loop
    vertex 2.5114071483515548 0.672929517266484 0.0
    vertex 2.5999999999999774 -7.036814635913717e-14 7.999999999999999
    vertex 2.5114071483515548 0.672929517266484 7.999999999999999
  endloop
endfacet
facet normal -0.9238795325112868 -0.3826834323650896 0.0
  outer loop
    vertex 2.251666049839518 1.2999999999999303 7.999999999999999
    vertex 2.5114071483515548 0.672929517266484 0.0
    vertex 2.5114071483515548 0.672929517266484 7.999999999999999
  endloop
endfacet
facet normal -0.9238795325112868 -0.3826834323650896 0.0
  outer loop
    vertex 2.5114071483515548 0.672929517266484 0.0
    vertex 2.251666049839518 1.2999999999999303 7.999999999999999
    vertex 2.251666049839518 1.2999999999999303 0.0
  endloop
endfacet
facet normal -0.7933533402912349 -0.6087614290087212 3.064864593946101e-17
  outer loop
    vertex 1.838477631085001 1.838477631084953 7.999999999999999
    vertex 2.251666049839518 1.2999999999999303 0.0
    vertex 2.251666049839518 1.2999999999999303 7.999999999999999
  endloop
endfacet
facet normal -0.7933533402912349 -0.6087614290087212 3.064864593946101e-17
  outer loop
    vertex 2.251666049839518 1.2999999999999303 0.0
    vertex 1.838477631085001 1.838477631084953 7.999999999999999
    vertex 1.8384776310850008 1.8384776310849529 0.0
  endloop
endfacet
facet normal -0.6087614290087204 -0.7933533402912355 6.395865939430794e-17
  outer loop
    vertex 1.838477631085001 1.838477631084953 7.999999999999999
    vertex 1.2999999999999767 2.25166604983947 0.0
    vertex 1.8384776310850008 1.8384776310849529 0.0
  endloop
endfacet
facet normal -0.6087614290087204 -0.7933533402912355 6.395865939430794e-17
  outer loop
    vertex 1.2999999999999767 2.25166604983947 0.0
    vertex 1.838477631085001 1.838477631084953 7.999999999999999
    vertex 1.2999999999999772 2.25166604983947 7.999999999999999
  endloop
endfacet
facet normal -0.3826834323650895 -0.9238795325112868 3.274250526849335e-17
  outer loop
    vertex 1.2999999999999772 2.25166604983947 7.999999999999999
    vertex 0.6729295172665309 2.511407148351507 0.0
    vertex 1.2999999999999767 2.25166604983947 0.0
  endloop
endfacet
facet normal -0.3826834323650895 -0.9238795325112868 3.274250526849335e-17
  outer loop
    vertex 0.6729295172665309 2.511407148351507 0.0
    vertex 1.2999999999999772 2.25166604983947 7.999999999999999
    vertex 0.6729295172665312 2.511407148351507 7.999999999999999
  endloop
endfacet
facet normal -0.13052619222005193 -0.9914448613738105 2.3383758500611635e-17
  outer loop
    vertex 0.6729295172665312 2.511407148351507 7.999999999999999
    vertex -2.287374818708326e-14 2.5999999999999295 0.0
    vertex 0.6729295172665309 2.511407148351507 0.0
  endloop
endfacet
facet normal -0.13052619222005193 -0.9914448613738105 2.3383758500611635e-17
  outer loop
    vertex -2.287374818708326e-14 2.5999999999999295 0.0
    vertex 0.6729295172665312 2.511407148351507 7.999999999999999
    vertex -2.2848976668626948e-14 2.5999999999999295 7.999999999999999
  endloop
endfacet
facet normal 0.13052619222005235 -0.9914448613738105 2.28131274597339e-17
  outer loop
    vertex -2.2848976668626948e-14 2.5999999999999295 7.999999999999999
    vertex -0.6729295172665772 2.5114071483515064 0.0
    vertex -2.287374818708326e-14 2.5999999999999295 0.0
  endloop
endfacet
facet normal 0.13052619222005235 -0.9914448613738105 2.28131274597339e-17
  outer loop
    vertex -0.6729295172665772 2.5114071483515064 0.0
    vertex -2.2848976668626948e-14 2.5999999999999295 7.999999999999999
    vertex -0.6729295172665773 2.5114071483515064 7.999999999999999
  endloop
endfacet
facet normal -1.0262772229965366e-15 1.0 -2.4508755701672828e-33
  outer loop
    vertex -7.076553762673241 3.6418501327000956 108.0
    vertex -3.641850132700185 3.641850132700099 60.0
    vertex -7.076553762673241 3.6418501327000956 51.069770562070055
  endloop
endfacet
facet normal -1.0262772229965366e-15 1.0 -2.4508755701672828e-33
  outer loop
    vertex -3.641850132700185 3.641850132700099 60.0
    vertex -7.076553762673241 3.6418501327000956 108.0
    vertex -3.641850132700185 3.641850132700099 108.0
  endloop
endfacet
facet normal -3.1086921920685913e-15 -1.0 5.529410425800541e-18
  outer loop
    vertex -7.07655376267314 -3.6418501327004855 51.06977056207034
    vertex -57.88555024883973 -3.641850132700327 7.999999999999999
    vertex -23.64185013270019 -3.641850132700432 7.999999999999999
  endloop
endfacet
facet normal -3.1086921920685913e-15 -1.0 5.529410425800541e-18
  outer loop
    vertex -57.88555024883973 -3.641850132700327 7.999999999999999
    vertex -7.07655376267314 -3.6418501327004855 51.06977056207034
    vertex -7.0765537626731385 -3.6418501327004833 108.0
  endloop
endfacet
facet normal -0.0 -0.0 1.0
  outer loop
    vertex -7.0765537626731385 -3.6418501327004833 108.0
    vertex -3.641850132700185 3.641850132700099 108.0
    vertex -7.076553762673241 3.6418501327000956 108.0
  endloop
endfacet
facet normal -0.0 -0.0 1.0
  outer loop
    vertex -3.641850132700185 3.641850132700099 108.0
    vertex -7.0765537626731385 -3.6418501327004833 108.0
    vertex -3.6418501327001893 -3.641850132700493 108.0
  endloop
endfacet
facet normal -0.0 -0.0 1.0
  outer loop
    vertex -3.641850132700185 3.641850132700099 108.0
    vertex -3.6418501327001893 -3.641850132700493 108.0
    vertex -3.641850132700187 -7.076553762673286 108.0
  endloop
endfacet
facet normal -0.0 -0.0 1.0
  outer loop
    vertex -3.641850132700185 3.641850132700099 108.0
    vertex -3.641850132700187 -7.076553762673286 108.0
    vertex 3.641850132700144 -7.076553762673292 108.0
  endloop
endfacet
facet normal -0.0 -0.0 1.0
  outer loop
    vertex -3.641850132700185 3.641850132700099 108.0
    vertex 3.641850132700144 7.076553762673147 108.0
    vertex -3.641850132700193 7.076553762673153 108.0
  endloop
endfacet
facet normal -0.0 -0.0 1.0
  outer loop
    vertex 3.641850132700144 7.076553762673147 108.0
    vertex -3.641850132700185 3.641850132700099 108.0
    vertex 3.641850132700144 -7.076553762673292 108.0
  endloop
endfacet
facet normal -0.0 -0.0 1.0
  outer loop
    vertex 3.641850132700144 7.076553762673147 108.0
    vertex 3.641850132700144 -7.076553762673292 108.0
    vertex 3.641850132700145 -3.6418501327005157 108.0
  endloop
endfacet
facet normal -0.0 -0.0 1.0
  outer loop
    vertex 3.641850132700144 7.076553762673147 108.0
    vertex 3.641850132700145 -3.6418501327005157 108.0
    vertex 3.641850132700145 3.641850132700108 108.0
  endloop
endfacet
facet normal -0.0 -0.0 1.0
  outer loop
    vertex 3.641850132700145 3.641850132700108 108.0
    vertex 3.641850132700145 -3.6418501327005157 108.0
    vertex 7.0765537626730834 -3.641850132700527 108.0
  endloop
endfacet
facet normal -0.0 -0.0 1.0
  outer loop
    vertex 3.641850132700145 3.641850132700108 108.0
    vertex 7.0765537626730834 -3.641850132700527 108.0
    vertex 7.076553762673191 3.6418501327001125 108.0
  endloop
endfacet
facet normal 1.0 -3.977259803349545e-17 1.3460868283489475e-17
  outer loop
    vertex 3.641850132700145 -23.641850132700515 7.999999999999999
    vertex 3.641850132700144 -7.076553762673292 108.0
    vertex 3.6418501327001436 -57.88555024883973 7.999999999999999
  endloop
endfacet
facet normal 1.0 -3.977259803349545e-17 1.3460868283489475e-17
  outer loop
    vertex 3.641850132700144 -7.076553762673292 108.0
    vertex 3.641850132700145 -23.641850132700515 7.999999999999999
    vertex 3.641850132700145 -7.076553762673294 51.06977056207078
  endloop
endfacet
facet normal -1.5485240561488047e-16 -0.8915236221418484 0.4529742058473955
  outer loop
    vertex 3.641850132700144 -7.076553762673292 108.0
    vertex -3.6418501327001653 -57.88555024883973 7.999999999999999
    vertex 3.6418501327001436 -57.88555024883973 7.999999999999999
  endloop
endfacet
facet normal -1.5485240561488047e-16 -0.8915236221418484 0.4529742058473955
  outer loop
    vertex -3.6418501327001653 -57.88555024883973 7.999999999999999
    vertex 3.641850132700144 -7.076553762673292 108.0
    vertex -3.641850132700187 -7.076553762673286 108.0
  endloop
endfacet
facet normal -1.2410657339085337e-15 1.0 -4.4806019190672565e-18
  outer loop
    vertex 7.07655376267319 3.641850132700111 51.06977056207008
    vertex 57.88555024883973 3.6418501327001747 7.999999999999999
    vertex 23.641850132700142 3.641850132700133 7.999999999999999
  endloop
endfacet
facet normal -1.2410657339085337e-15 1.0 -4.4806019190672565e-18
  outer loop
    vertex 57.88555024883973 3.6418501327001747 7.999999999999999
    vertex 7.07655376267319 3.641850132700111 51.06977056207008
    vertex 7.076553762673191 3.6418501327001125 108.0
  endloop
endfacet
facet normal 0.8915236221418481 -8.160733718188315e-15 0.4529742058473965
  outer loop
    vertex 57.88555024883973 3.6418501327001747 7.999999999999999
    vertex 7.0765537626730834 -3.641850132700527 108.0
    vertex 57.88555024883971 -3.6418501327006827 7.999999999999999
  endloop
endfacet
facet normal 0.8915236221418481 -8.160733718188315e-15 0.4529742058473965
  outer loop
    vertex 7.0765537626730834 -3.641850132700527 108.0
    vertex 57.88555024883973 3.6418501327001747 7.999999999999999
    vertex 7.076553762673191 3.6418501327001125 108.0
  endloop
endfacet
facet normal -0.0 -0.0 1.0
  outer loop
    vertex -3.6418501327001653 -57.88555024883973 7.999999999999999
    vertex 3.641850132700145 -23.641850132700515 7.999999999999999
    vertex -3.64185013270018 -23.64185013270049 7.999999999999999
  endloop
endfacet
facet normal -0.0 -0.0 1.0
  outer loop
    vertex 3.641850132700145 -23.641850132700515 7.999999999999999
    vertex -3.6418501327001653 -57.88555024883973 7.999999999999999
    vertex 3.6418501327001436 -57.88555024883973 7.999999999999999
  endloop
endfacet
facet normal 4.557691782382624e-16 0.8915236221418481 0.4529742058473965
  outer loop
    vertex -3.641850132700193 7.076553762673153 108.0
    vertex 3.641850132700145 57.88555024883973 7.999999999999999
    vertex -3.6418501327002146 57.88555024883973 7.999999999999999
  endloop
endfacet
facet normal 4.557691782382624e-16 0.8915236221418481 0.4529742058473965
  outer loop
    vertex 3.641850132700145 57.88555024883973 7.999999999999999
    vertex -3.641850132700193 7.076553762673153 108.0
    vertex 3.641850132700144 7.076553762673147 108.0
  endloop
endfacet
facet normal -1.2458080386203548e-15 1.0 7.70484527439104e-18
  outer loop
    vertex -7.076553762673241 3.6418501327000956 108.0
    vertex -23.641850132700185 3.6418501327000756 7.999999999999999
    vertex -57.88555024883974 3.641850132700033 7.999999999999999
  endloop
endfacet
facet normal -1.2458080386203548e-15 1.0 7.70484527439104e-18
  outer loop
    vertex -23.641850132700185 3.6418501327000756 7.999999999999999
    vertex -7.076553762673241 3.6418501327000956 108.0
    vertex -7.076553762673241 3.6418501327000956 51.069770562070055
  endloop
endfacet
facet normal -0.8915236221418481 -7.190890497837992e-15 0.4529742058473962
  outer loop
    vertex -7.076553762673241 3.6418501327000956 108.0
    vertex -57.88555024883973 -3.641850132700327 7.999999999999999
    vertex -7.0765537626731385 -3.6418501327004833 108.0
  endloop
endfacet
facet normal -0.8915236221418481 -7.190890497837992e-15 0.4529742058473962
  outer loop
    vertex -57.88555024883973 -3.641850132700327 7.999999999999999
    vertex -7.076553762673241 3.6418501327000956 108.0
    vertex -57.88555024883974 3.641850132700033 7.999999999999999
  endloop
endfacet
facet normal -1.0 -1.5486449907575342e-15 -1.4165845380992014e-31
  outer loop
    vertex -57.88555024883974 3.641850132700033 7.999999999999999
    vertex -57.88555024883973 -3.641850132700327 0.0
    vertex -57.88555024883973 -3.641850132700327 7.999999999999999
  endloop
endfacet
facet normal -0.9995065603657317 0.03141075907812637 -1.2454260911099297e-18
  outer loop
    vertex -57.88555024883974 3.641850132700033 0.0
    vertex -57.999999999999986 -1.474400935927671e-13 0.0
    vertex -57.88555024883974 3.641850132700033 7.999999999999999
  endloop
endfacet
facet normal -0.999098080759619 -0.03139792208935451 0.028586631681905002
  outer loop
    vertex -57.88555024883974 3.641850132700033 7.999999999999999
    vertex -57.999999999999986 -1.474400935927671e-13 0.0
    vertex -57.88555024883973 -3.641850132700327 0.0
  endloop
endfacet
facet normal -0.03141075907812966 -0.9995065603657315 0.0
  outer loop
    vertex -3.6418501327001653 -57.88555024883973 7.999999999999999
    vertex -3.6418501327001653 -57.88555024883973 0.0
    vertex -1.0654427152581969e-14 -57.999999999999986 0.0
  endloop
endfacet
facet normal 0.0 -1.0 0.0
  outer loop
    vertex -3.6418501327001653 -57.88555024883973 7.999999999999999
    vertex 3.6418501327001436 -57.88555024883973 0.0
    vertex 3.6418501327001436 -57.88555024883973 7.999999999999999
  endloop
endfacet
facet normal 0.031397922089354706 -0.999098080759619 0.028586631681906397
  outer loop
    vertex -3.6418501327001653 -57.88555024883973 7.999999999999999
    vertex -1.0654427152581969e-14 -57.999999999999986 0.0
    vertex 3.6418501327001436 -57.88555024883973 0.0
  endloop
endfacet
facet normal 0.9995065603657315 -0.0314107590781313 -1.2454260911095855e-18
  outer loop
    vertex 57.999999999999986 0.0 0.0
    vertex 57.88555024883971 -3.6418501327006827 7.999999999999999
    vertex 57.88555024883971 -3.6418501327006827 0.0
  endloop
endfacet
facet normal 1.0 -3.0972899815148574e-15 -2.833169076198016e-31
  outer loop
    vertex 57.88555024883973 3.6418501327001747 7.999999999999999
    vertex 57.88555024883971 -3.6418501327006827 7.999999999999999
    vertex 57.88555024883973 3.6418501327001747 0.0
  endloop
endfacet
facet normal 0.9990980807596188 0.03139792208935456 0.028586631681911227
  outer loop
    vertex 57.88555024883973 3.6418501327001747 0.0
    vertex 57.88555024883971 -3.6418501327006827 7.999999999999999
    vertex 57.999999999999986 0.0 0.0
  endloop
endfacet
facet normal 0.03141075907812945 0.9995065603657315 -1.2454260911099295e-18
  outer loop
    vertex 3.641850132700145 57.88555024883973 7.999999999999999
    vertex 3.641850132700145 57.88555024883973 0.0
    vertex -3.5084285539428116e-14 57.999999999999986 0.0
  endloop
endfacet
facet normal -0.03139792208935451 0.999098080759619 0.028586631681906408
  outer loop
    vertex 3.641850132700145 57.88555024883973 7.999999999999999
    vertex -3.5084285539428116e-14 57.999999999999986 0.0
    vertex -3.6418501327002146 57.88555024883973 0.0
  endloop
endfacet
facet normal -0.0 1.0 -0.0
  outer loop
    vertex 3.641850132700145 57.88555024883973 7.999999999999999
    vertex -3.6418501327002146 57.88555024883973 0.0
    vertex -3.6418501327002146 57.88555024883973 7.999999999999999
  endloop
endfacet
facet normal -1.045096142752055e-15 1.0 -1.447609211962699e-17
  outer loop
    vertex 3.641850132700145 3.641850132700108 59.99999999999999
    vertex 7.076553762673191 3.6418501327001125 108.0
    vertex 7.07655376267319 3.641850132700111 51.06977056207008
  endloop
endfacet
facet normal -1.045096142752055e-15 1.0 -1.447609211962699e-17
  outer loop
    vertex 7.076553762673191 3.6418501327001125 108.0
    vertex 3.641850132700145 3.641850132700108 59.99999999999999
    vertex 3.641850132700145 3.641850132700108 108.0
  endloop
endfacet
facet normal -2.5939214371246938e-15 -1.0 2.171413817944057e-17
  outer loop
    vertex -3.6418501327001893 -3.641850132700493 60.0
    vertex -7.0765537626731385 -3.6418501327004833 108.0
    vertex -7.07655376267314 -3.6418501327004855 51.06977056207034
  endloop
endfacet
facet normal -2.5939214371246938e-15 -1.0 2.171413817944057e-17
  outer loop
    vertex -7.0765537626731385 -3.6418501327004833 108.0
    vertex -3.6418501327001893 -3.641850132700493 60.0
    vertex -3.6418501327001893 -3.641850132700493 108.0
  endloop
endfacet
facet normal 1.0 -1.1203718217741952e-16 7.23804605981352e-18
  outer loop
    vertex 3.641850132700145 -3.6418501327005157 59.99999999999999
    vertex 3.641850132700144 -7.076553762673292 108.0
    vertex 3.641850132700145 -7.076553762673294 51.06977056207078
  endloop
endfacet
facet normal 1.0 -1.1203718217741952e-16 7.23804605981352e-18
  outer loop
    vertex 3.641850132700144 -7.076553762673292 108.0
    vertex 3.641850132700145 -3.6418501327005157 59.99999999999999
    vertex 3.641850132700145 -3.6418501327005157 108.0
  endloop
endfacet
facet normal -2.9112140639014302e-15 -1.0 -2.895218423925409e-17
  outer loop
    vertex 7.0765537626730834 -3.641850132700527 108.0
    vertex 3.641850132700145 -3.6418501327005157 59.99999999999999
    vertex 7.076553762673085 -3.641850132700524 51.06977056207034
  endloop
endfacet
facet normal -2.9112140639014302e-15 -1.0 -2.895218423925409e-17
  outer loop
    vertex 3.641850132700145 -3.6418501327005157 59.99999999999999
    vertex 7.0765537626730834 -3.641850132700527 108.0
    vertex 3.641850132700145 -3.6418501327005157 108.0
  endloop
endfacet
facet normal -3.113721347722211e-15 -1.0 -1.40489569221241e-17
  outer loop
    vertex 7.0765537626730834 -3.641850132700527 108.0
    vertex 23.641850132700146 -3.641850132700578 7.999999999999999
    vertex 57.88555024883971 -3.6418501327006827 7.999999999999999
  endloop
endfacet
facet normal -3.113721347722211e-15 -1.0 -1.40489569221241e-17
  outer loop
    vertex 23.641850132700146 -3.641850132700578 7.999999999999999
    vertex 7.0765537626730834 -3.641850132700527 108.0
    vertex 7.076553762673085 -3.641850132700524 51.06977056207034
  endloop
endfacet
facet normal 1.0 -5.694956749378174e-18 9.415474158055047e-19
  outer loop
    vertex 3.641850132700144 23.641850132700107 7.999999999999999
    vertex 3.641850132700144 7.076553762673147 108.0
    vertex 3.641850132700145 7.076553762673146 51.06977056207009
  endloop
endfacet
facet normal 1.0 -5.694956749378174e-18 9.415474158055047e-19
  outer loop
    vertex 3.641850132700144 7.076553762673147 108.0
    vertex 3.641850132700144 23.641850132700107 7.999999999999999
    vertex 3.641850132700145 57.88555024883973 7.999999999999999
  endloop
endfacet
facet normal 1.0 1.1203718217741173e-16 7.238046059813502e-18
  outer loop
    vertex 3.641850132700145 7.076553762673146 51.06977056207009
    vertex 3.641850132700145 3.641850132700108 108.0
    vertex 3.641850132700145 3.641850132700108 59.99999999999999
  endloop
endfacet
facet normal 1.0 1.1203718217741173e-16 7.238046059813502e-18
  outer loop
    vertex 3.641850132700145 3.641850132700108 108.0
    vertex 3.641850132700145 7.076553762673146 51.06977056207009
    vertex 3.641850132700144 7.076553762673147 108.0
  endloop
endfacet
facet normal -1.0 -4.798945946953827e-16 -6.127748591191207e-18
  outer loop
    vertex -3.6418501327002146 57.88555024883973 7.999999999999999
    vertex -3.6418501327001884 7.076553762673153 51.069770562070055
    vertex -3.641850132700193 7.076553762673153 108.0
  endloop
endfacet
facet normal -1.0 -4.798945946953827e-16 -6.127748591191207e-18
  outer loop
    vertex -3.6418501327001884 7.076553762673153 51.069770562070055
    vertex -3.6418501327002146 57.88555024883973 7.999999999999999
    vertex -3.6418501327002013 23.6418501327001 7.999999999999999
  endloop
endfacet
facet normal -1.0 -1.6985003160610045e-15 -4.342827635888101e-17
  outer loop
    vertex -3.641850132700193 7.076553762673153 108.0
    vertex -3.641850132700185 3.641850132700099 60.0
    vertex -3.641850132700185 3.641850132700099 108.0
  endloop
endfacet
facet normal -1.0 -1.6985003160610045e-15 -4.342827635888101e-17
  outer loop
    vertex -3.641850132700185 3.641850132700099 60.0
    vertex -3.641850132700193 7.076553762673153 108.0
    vertex -3.6418501327001884 7.076553762673153 51.069770562070055
  endloop
endfacet
facet normal -1.0 -4.2932980895416144e-16 1.4476092119627034e-17
  outer loop
    vertex -3.6418501327001893 -3.641850132700493 108.0
    vertex -3.6418501327001884 -7.076553762673284 51.069770562070744
    vertex -3.641850132700187 -7.076553762673286 108.0
  endloop
endfacet
facet normal -1.0 -4.2932980895416144e-16 1.4476092119627034e-17
  outer loop
    vertex -3.6418501327001884 -7.076553762673284 51.069770562070744
    vertex -3.6418501327001893 -3.641850132700493 108.0
    vertex -3.6418501327001893 -3.641850132700493 60.0
  endloop
endfacet
facet normal -1.0 -4.546357617391531e-16 7.634913514674313e-18
  outer loop
    vertex -3.641850132700187 -7.076553762673286 108.0
    vertex -3.64185013270018 -23.64185013270049 7.999999999999999
    vertex -3.6418501327001653 -57.88555024883973 7.999999999999999
  endloop
endfacet
facet normal -1.0 -4.546357617391531e-16 7.634913514674313e-18
  outer loop
    vertex -3.64185013270018 -23.64185013270049 7.999999999999999
    vertex -3.641850132700187 -7.076553762673286 108.0
    vertex -3.6418501327001884 -7.076553762673284 51.069770562070744
  endloop
endfacet
facet normal -0.0 -0.0 1.0
  outer loop
    vertex -57.88555024883973 -3.641850132700327 7.999999999999999
    vertex -23.641850132700185 3.6418501327000756 7.999999999999999
    vertex -57.88555024883974 3.641850132700033 7.999999999999999
  endloop
endfacet
facet normal -0.0 -0.0 1.0
  outer loop
    vertex -23.641850132700185 3.6418501327000756 7.999999999999999
    vertex -57.88555024883973 -3.641850132700327 7.999999999999999
    vertex -23.64185013270019 -3.641850132700432 7.999999999999999
  endloop
endfacet
facet normal -0.0 -0.0 1.0
  outer loop
    vertex 23.641850132700146 -3.641850132700578 7.999999999999999
    vertex 57.88555024883973 3.6418501327001747 7.999999999999999
    vertex 23.641850132700142 3.641850132700133 7.999999999999999
  endloop
endfacet
facet normal -0.0 -0.0 1.0
  outer loop
    vertex 57.88555024883973 3.6418501327001747 7.999999999999999
    vertex 23.641850132700146 -3.641850132700578 7.999999999999999
    vertex 57.88555024883971 -3.6418501327006827 7.999999999999999
  endloop
endfacet
facet normal -0.0 -0.0 1.0
  outer loop
    vertex -3.6418501327002013 23.6418501327001 7.999999999999999
    vertex 3.641850132700145 57.88555024883973 7.999999999999999
    vertex -3.6418501327002146 57.88555024883973 7.999999999999999
  endloop
endfacet
facet normal -0.0 -0.0 1.0
  outer loop
    vertex 3.641850132700145 57.88555024883973 7.999999999999999
    vertex -3.6418501327002013 23.6418501327001 7.999999999999999
    vertex 3.641850132700144 23.641850132700107 7.999999999999999
  endloop
endfacet
facet normal 5.492882809116564e-16 -0.9333456062030597 -0.3589790793088691
  outer loop
    vertex 3.641850132700145 7.076553762673146 51.06977056207009
    vertex -3.6418501327002013 23.6418501327001 7.999999999999999
    vertex 3.641850132700144 23.641850132700107 7.999999999999999
  endloop
endfacet
facet normal 5.492882809116564e-16 -0.9333456062030597 -0.3589790793088691
  outer loop
    vertex -3.6418501327002013 23.6418501327001 7.999999999999999
    vertex 3.641850132700145 7.076553762673146 51.06977056207009
    vertex -3.6418501327001884 7.076553762673153 51.069770562070055
  endloop
endfacet
facet normal 5.492882809116564e-16 -0.9333456062030597 -0.3589790793088691
  outer loop
    vertex -3.6418501327001884 7.076553762673153 51.069770562070055
    vertex 3.641850132700145 7.076553762673146 51.06977056207009
    vertex -3.641850132700185 3.641850132700099 60.0
  endloop
endfacet
facet normal 5.492882809116564e-16 -0.9333456062030597 -0.3589790793088691
  outer loop
    vertex -3.641850132700185 3.641850132700099 60.0
    vertex 3.641850132700145 7.076553762673146 51.06977056207009
    vertex 3.641850132700145 3.641850132700108 59.99999999999999
  endloop
endfacet
facet normal 2.800966344207605e-15 0.9333456062030597 -0.35897907930886913
  outer loop
    vertex -3.6418501327001884 -7.076553762673284 51.069770562070744
    vertex 3.641850132700145 -23.641850132700515 7.999999999999999
    vertex -3.64185013270018 -23.64185013270049 7.999999999999999
  endloop
endfacet
facet normal 2.800966344207605e-15 0.9333456062030597 -0.35897907930886913
  outer loop
    vertex 3.641850132700145 -23.641850132700515 7.999999999999999
    vertex -3.6418501327001884 -7.076553762673284 51.069770562070744
    vertex 3.641850132700145 -7.076553762673294 51.06977056207078
  endloop
endfacet
facet normal 2.800966344207605e-15 0.9333456062030597 -0.35897907930886913
  outer loop
    vertex 3.641850132700145 -7.076553762673294 51.06977056207078
    vertex -3.6418501327001884 -7.076553762673284 51.069770562070744
    vertex -3.6418501327001893 -3.641850132700493 60.0
  endloop
endfacet
facet normal 2.800966344207605e-15 0.9333456062030597 -0.35897907930886913
  outer loop
    vertex 3.641850132700145 -7.076553762673294 51.06977056207078
    vertex -3.6418501327001893 -3.641850132700493 60.0
    vertex 3.641850132700145 -3.6418501327005157 59.99999999999999
  endloop
endfacet
facet normal -0.9333456062030597 5.856382406778163e-17 -0.3589790793088691
  outer loop
    vertex 7.076553762673085 -3.641850132700524 51.06977056207034
    vertex 23.641850132700142 3.641850132700133 7.999999999999999
    vertex 23.641850132700146 -3.641850132700578 7.999999999999999
  endloop
endfacet
facet normal -0.9333456062030597 5.856382406778163e-17 -0.3589790793088691
  outer loop
    vertex 23.641850132700142 3.641850132700133 7.999999999999999
    vertex 7.076553762673085 -3.641850132700524 51.06977056207034
    vertex 3.641850132700145 -3.6418501327005157 59.99999999999999
  endloop
endfacet
facet normal -0.9333456062030597 5.856382406778163e-17 -0.3589790793088691
  outer loop
    vertex 23.641850132700142 3.641850132700133 7.999999999999999
    vertex 3.641850132700145 -3.6418501327005157 59.99999999999999
    vertex 7.07655376267319 3.641850132700111 51.06977056207008
  endloop
endfacet
facet normal -0.9333456062030597 5.856382406778163e-17 -0.3589790793088691
  outer loop
    vertex 7.07655376267319 3.641850132700111 51.06977056207008
    vertex 3.641850132700145 -3.6418501327005157 59.99999999999999
    vertex 3.641850132700145 3.641850132700108 59.99999999999999
  endloop
endfacet
facet normal 0.9333456062030595 -6.785325823025905e-16 -0.35897907930886896
  outer loop
    vertex -7.07655376267314 -3.6418501327004855 51.06977056207034
    vertex -3.641850132700185 3.641850132700099 60.0
    vertex -3.6418501327001893 -3.641850132700493 60.0
  endloop
endfacet
facet normal 0.9333456062030595 -6.785325823025905e-16 -0.35897907930886896
  outer loop
    vertex -3.641850132700185 3.641850132700099 60.0
    vertex -7.07655376267314 -3.6418501327004855 51.06977056207034
    vertex -23.64185013270019 -3.641850132700432 7.999999999999999
  endloop
endfacet
facet normal 0.9333456062030595 -6.785325823025905e-16 -0.35897907930886896
  outer loop
    vertex -3.641850132700185 3.641850132700099 60.0
    vertex -23.64185013270019 -3.641850132700432 7.999999999999999
    vertex -23.641850132700185 3.6418501327000756 7.999999999999999
  endloop
endfacet
facet normal 0.9333456062030595 -6.785325823025905e-16 -0.35897907930886896
  outer loop
    vertex -3.641850132700185 3.641850132700099 60.0
    vertex -23.641850132700185 3.6418501327000756 7.999999999999999
    vertex -7.076553762673241 3.6418501327000956 51.069770562070055
  endloop
endfacet
facet normal -1.5486449907575403e-15 3.7856031905239462e-31 -1.0
  outer loop
    vertex -3.641850132700185 3.641850132700099 60.0
    vertex 3.641850132700145 -3.6418501327005157 59.99999999999999
    vertex -3.6418501327001893 -3.641850132700493 60.0
  endloop
endfacet
facet normal -1.5486449907575403e-15 3.7856031905239462e-31 -1.0
  outer loop
    vertex 3.641850132700145 -3.6418501327005157 59.99999999999999
    vertex -3.641850132700185 3.641850132700099 60.0
    vertex 3.641850132700145 3.641850132700108 59.99999999999999
  endloop
endfacet
facet normal -0.0 -0.0 1.0
  outer loop
    vertex -2.694970338802078 -3.7278861131984233 7.999999999999999
    vertex -2.5114071483516 -0.6729295172666268 7.999999999999999
    vertex -2.6000000000000223 -7.072674609382017e-14 7.999999999999999
  endloop
endfacet
facet normal -0.0 -0.0 1.0
  outer loop
    vertex -2.5114071483516 -0.6729295172666268 7.999999999999999
    vertex -2.694970338802078 -3.7278861131984233 7.999999999999999
    vertex -2.2516660498395633 -1.300000000000072 7.999999999999999
  endloop
endfacet
facet normal -0.0 -0.0 1.0
  outer loop
    vertex -2.2516660498395633 -1.300000000000072 7.999999999999999
    vertex -2.694970338802078 -3.7278861131984233 7.999999999999999
    vertex -1.8384776310850464 -1.8384776310850952 7.999999999999999
  endloop
endfacet
facet normal -0.0 -0.0 1.0
  outer loop
    vertex -1.8384776310850464 -1.8384776310850952 7.999999999999999
    vertex -2.694970338802078 -3.7278861131984233 7.999999999999999
    vertex -1.3000000000000211 -2.2516660498396126 7.999999999999999
  endloop
endfacet
facet normal -0.0 -0.0 1.0
  outer loop
    vertex -1.3000000000000211 -2.2516660498396126 7.999999999999999
    vertex -2.694970338802078 -3.7278861131984233 7.999999999999999
    vertex 1.880958907043958 -4.197855832447381 7.999999999999999
  endloop
endfacet
facet normal -0.0 -0.0 1.0
  outer loop
    vertex -1.3000000000000211 -2.2516660498396126 7.999999999999999
    vertex 1.880958907043958 -4.197855832447381 7.999999999999999
    vertex -0.6729295172665757 -2.5114071483516494 7.999999999999999
  endloop
endfacet
facet normal -0.0 -0.0 1.0
  outer loop
    vertex -0.6729295172665757 -2.5114071483516494 7.999999999999999
    vertex 1.880958907043958 -4.197855832447381 7.999999999999999
    vertex -2.2223009828290183e-14 -2.600000000000071 7.999999999999999
  endloop
endfacet
facet normal -0.0 -0.0 1.0
  outer loop
    vertex -2.2223009828290183e-14 -2.600000000000071 7.999999999999999
    vertex 1.880958907043958 -4.197855832447381 7.999999999999999
    vertex 0.6729295172665333 -2.511407148351648 7.999999999999999
  endloop
endfacet
facet normal -0.0 -0.0 1.0
  outer loop
    vertex 0.6729295172665333 -2.511407148351648 7.999999999999999
    vertex 1.880958907043958 -4.197855832447381 7.999999999999999
    vertex 1.299999999999979 -2.251666049839611 7.999999999999999
  endloop
endfacet
facet normal -0.0 -0.0 1.0
  outer loop
    vertex 1.299999999999979 -2.251666049839611 7.999999999999999
    vertex 1.880958907043958 -4.197855832447381 7.999999999999999
    vertex 1.838477631085002 -1.8384776310850945 7.999999999999999
  endloop
endfacet
facet normal -0.0 -0.0 1.0
  outer loop
    vertex 1.838477631085002 -1.8384776310850945 7.999999999999999
    vertex 1.880958907043958 -4.197855832447381 7.999999999999999
    vertex 2.251666049839518 -1.3000000000000707 7.999999999999999
  endloop
endfacet
facet normal -0.0 -0.0 1.0
  outer loop
    vertex 2.251666049839518 -1.3000000000000707 7.999999999999999
    vertex 1.880958907043958 -4.197855832447381 7.999999999999999
    vertex 4.57592924584601 -0.4699697192490276 7.999999999999999
  endloop
endfacet
facet normal -0.0 -0.0 1.0
  outer loop
    vertex 2.251666049839518 -1.3000000000000707 7.999999999999999
    vertex 4.57592924584601 -0.4699697192490276 7.999999999999999
    vertex 2.5114071483515557 -0.6729295172666238 7.999999999999999
  endloop
endfacet
facet normal -0.0 -0.0 1.0
  outer loop
    vertex 2.5114071483515557 -0.6729295172666238 7.999999999999999
    vertex 4.57592924584601 -0.4699697192490276 7.999999999999999
    vertex 2.5999999999999774 -7.036814635913717e-14 7.999999999999999
  endloop
endfacet
facet normal -0.0 -0.0 1.0
  outer loop
    vertex 2.5999999999999774 -7.036814635913717e-14 7.999999999999999
    vertex 4.57592924584601 -0.4699697192490276 7.999999999999999
    vertex 2.6949703388020323 3.727886113198282 7.999999999999999
  endloop
endfacet
facet normal -0.0 -0.0 1.0
  outer loop
    vertex -4.575929245846055 0.46996971924888764 7.999999999999999
    vertex -2.5114071483516 0.6729295172664835 7.999999999999999
    vertex -1.8809589070440007 4.19785583244724 7.999999999999999
  endloop
endfacet
facet normal -0.0 -0.0 1.0
  outer loop
    vertex -2.5114071483516 0.6729295172664835 7.999999999999999
    vertex -4.575929245846055 0.46996971924888764 7.999999999999999
    vertex -2.6000000000000223 -7.072674609382017e-14 7.999999999999999
  endloop
endfacet
facet normal -0.0 -0.0 1.0
  outer loop
    vertex -2.6000000000000223 -7.072674609382017e-14 7.999999999999999
    vertex -4.575929245846055 0.46996971924888764 7.999999999999999
    vertex -2.694970338802078 -3.7278861131984233 7.999999999999999
  endloop
endfacet
facet normal -0.0 -0.0 1.0
  outer loop
    vertex -1.8809589070440007 4.19785583244724 7.999999999999999
    vertex -2.5114071483516 0.6729295172664835 7.999999999999999
    vertex -2.2516660498395633 1.299999999999929 7.999999999999999
  endloop
endfacet
facet normal -0.0 -0.0 1.0
  outer loop
    vertex -1.8809589070440007 4.19785583244724 7.999999999999999
    vertex -2.2516660498395633 1.299999999999929 7.999999999999999
    vertex -1.8384776310850466 1.8384776310849524 7.999999999999999
  endloop
endfacet
facet normal -0.0 -0.0 1.0
  outer loop
    vertex -1.8809589070440007 4.19785583244724 7.999999999999999
    vertex -1.8384776310850466 1.8384776310849524 7.999999999999999
    vertex -1.3000000000000234 2.2516660498394687 7.999999999999999
  endloop
endfacet
facet normal -0.0 -0.0 1.0
  outer loop
    vertex -1.8809589070440007 4.19785583244724 7.999999999999999
    vertex -1.3000000000000234 2.2516660498394687 7.999999999999999
    vertex -0.6729295172665773 2.5114071483515064 7.999999999999999
  endloop
endfacet
facet normal -0.0 -0.0 1.0
  outer loop
    vertex -1.8809589070440007 4.19785583244724 7.999999999999999
    vertex -0.6729295172665773 2.5114071483515064 7.999999999999999
    vertex 2.6949703388020323 3.727886113198282 7.999999999999999
  endloop
endfacet
facet normal -0.0 -0.0 1.0
  outer loop
    vertex 2.6949703388020323 3.727886113198282 7.999999999999999
    vertex -0.6729295172665773 2.5114071483515064 7.999999999999999
    vertex -2.2848976668626948e-14 2.5999999999999295 7.999999999999999
  endloop
endfacet
facet normal -0.0 -0.0 1.0
  outer loop
    vertex 2.6949703388020323 3.727886113198282 7.999999999999999
    vertex -2.2848976668626948e-14 2.5999999999999295 7.999999999999999
    vertex 0.6729295172665312 2.511407148351507 7.999999999999999
  endloop
endfacet
facet normal -0.0 -0.0 1.0
  outer loop
    vertex 2.6949703388020323 3.727886113198282 7.999999999999999
    vertex 0.6729295172665312 2.511407148351507 7.999999999999999
    vertex 1.2999999999999772 2.25166604983947 7.999999999999999
  endloop
endfacet
facet normal -0.0 -0.0 1.0
  outer loop
    vertex 2.6949703388020323 3.727886113198282 7.999999999999999
    vertex 1.2999999999999772 2.25166604983947 7.999999999999999
    vertex 1.838477631085001 1.838477631084953 7.999999999999999
  endloop
endfacet
facet normal -0.0 -0.0 1.0
  outer loop
    vertex 2.6949703388020323 3.727886113198282 7.999999999999999
    vertex 1.838477631085001 1.838477631084953 7.999999999999999
    vertex 2.251666049839518 1.2999999999999303 7.999999999999999
  endloop
endfacet
facet normal -0.0 -0.0 1.0
  outer loop
    vertex 2.6949703388020323 3.727886113198282 7.999999999999999
    vertex 2.251666049839518 1.2999999999999303 7.999999999999999
    vertex 2.5114071483515548 0.672929517266484 7.999999999999999
  endloop
endfacet
facet normal -0.0 -0.0 1.0
  outer loop
    vertex 2.6949703388020323 3.727886113198282 7.999999999999999
    vertex 2.5114071483515548 0.672929517266484 7.999999999999999
    vertex 2.5999999999999774 -7.036814635913717e-14 7.999999999999999
  endloop
endfacet
facet normal 0.0 0.0 1.0
  outer loop
    vertex -4.0000000000000195 -6.928203230275578 12.027086000000002
    vertex -4.575929245846055 0.46996971924888764 12.027086000000002
    vertex -5.656854249492401 -5.65685424949245 12.027086000000002
  endloop
endfacet
facet normal 0.0 0.0 1.0
  outer loop
    vertex -4.575929245846055 0.46996971924888764 12.027086000000002
    vertex -4.0000000000000195 -6.928203230275578 12.027086000000002
    vertex -2.694970338802078 -3.7278861131984233 12.027086000000002
  endloop
endfacet
facet normal 0.0 0.0 1.0
  outer loop
    vertex -2.694970338802078 -3.7278861131984233 12.027086000000002
    vertex -4.0000000000000195 -6.928203230275578 12.027086000000002
    vertex -3.641850132700187 -7.076553762673286 12.027086000000002
  endloop
endfacet
facet normal 0.0 0.0 1.0
  outer loop
    vertex -2.694970338802078 -3.7278861131984233 12.027086000000002
    vertex -3.641850132700187 -7.076553762673286 12.027086000000002
    vertex 3.641850132700144 -7.076553762673292 12.027086000000002
  endloop
endfacet
facet normal 0.0 0.0 1.0
  outer loop
    vertex -2.694970338802078 -3.7278861131984233 12.027086000000002
    vertex 3.641850132700144 -7.076553762673292 12.027086000000002
    vertex 1.880958907043958 -4.197855832447381 12.027086000000002
  endloop
endfacet
facet normal 0.0 0.0 1.0
  outer loop
    vertex 1.880958907043958 -4.197855832447381 12.027086000000002
    vertex 3.641850132700144 -7.076553762673292 12.027086000000002
    vertex 4.57592924584601 -0.4699697192490276 12.027086000000002
  endloop
endfacet
facet normal 0.0 0.0 1.0
  outer loop
    vertex 4.57592924584601 -0.4699697192490276 12.027086000000002
    vertex 3.641850132700144 -7.076553762673292 12.027086000000002
    vertex 3.9999999999999774 -6.928203230275578 12.027086000000002
  endloop
endfacet
facet normal 0.0 0.0 1.0
  outer loop
    vertex 4.57592924584601 -0.4699697192490276 12.027086000000002
    vertex 3.9999999999999774 -6.928203230275578 12.027086000000002
    vertex 5.656854249492357 -5.656854249492449 12.027086000000002
  endloop
endfacet
facet normal 0.0 0.0 1.0
  outer loop
    vertex 4.57592924584601 -0.4699697192490276 12.027086000000002
    vertex 5.656854249492357 -5.656854249492449 12.027086000000002
    vertex 5.656854249492355 5.6568542494923095 12.027086000000002
  endloop
endfacet
facet normal 0.0 0.0 1.0
  outer loop
    vertex 5.656854249492355 5.6568542494923095 12.027086000000002
    vertex 5.656854249492357 -5.656854249492449 12.027086000000002
    vertex 6.928203230275482 3.999999999999932 12.027086000000002
  endloop
endfacet
facet normal 0.0 0.0 1.0
  outer loop
    vertex 6.928203230275482 3.999999999999932 12.027086000000002
    vertex 5.656854249492357 -5.656854249492449 12.027086000000002
    vertex 6.928203230275485 -4.000000000000068 12.027086000000002
  endloop
endfacet
facet normal 0.0 0.0 1.0
  outer loop
    vertex 6.928203230275482 3.999999999999932 12.027086000000002
    vertex 6.928203230275485 -4.000000000000068 12.027086000000002
    vertex 7.076553762673191 3.6418501327001125 12.027086000000002
  endloop
endfacet
facet normal 0.0 0.0 1.0
  outer loop
    vertex 7.076553762673191 3.6418501327001125 12.027086000000002
    vertex 6.928203230275485 -4.000000000000068 12.027086000000002
    vertex 7.0765537626730834 -3.641850132700527 12.027086000000002
  endloop
endfacet
facet normal 0.0 0.0 1.0
  outer loop
    vertex -7.0765537626731385 -3.6418501327004833 12.027086000000002
    vertex -6.928203230275532 3.9999999999999263 12.027086000000002
    vertex -7.076553762673241 3.6418501327000956 12.027086000000002
  endloop
endfacet
facet normal 0.0 0.0 1.0
  outer loop
    vertex -6.928203230275532 3.9999999999999263 12.027086000000002
    vertex -7.0765537626731385 -3.6418501327004833 12.027086000000002
    vertex -6.928203230275529 -4.000000000000072 12.027086000000002
  endloop
endfacet
facet normal 0.0 0.0 1.0
  outer loop
    vertex -6.928203230275532 3.9999999999999263 12.027086000000002
    vertex -6.928203230275529 -4.000000000000072 12.027086000000002
    vertex -5.656854249492405 5.656854249492305 12.027086000000002
  endloop
endfacet
facet normal 0.0 0.0 1.0
  outer loop
    vertex -5.656854249492405 5.656854249492305 12.027086000000002
    vertex -6.928203230275529 -4.000000000000072 12.027086000000002
    vertex -5.656854249492401 -5.65685424949245 12.027086000000002
  endloop
endfacet
facet normal 0.0 0.0 1.0
  outer loop
    vertex -5.656854249492405 5.656854249492305 12.027086000000002
    vertex -5.656854249492401 -5.65685424949245 12.027086000000002
    vertex -4.000000000000025 6.928203230275434 12.027086000000002
  endloop
endfacet
facet normal 0.0 0.0 1.0
  outer loop
    vertex -4.000000000000025 6.928203230275434 12.027086000000002
    vertex -5.656854249492401 -5.65685424949245 12.027086000000002
    vertex -4.575929245846055 0.46996971924888764 12.027086000000002
  endloop
endfacet
facet normal 0.0 0.0 1.0
  outer loop
    vertex -4.000000000000025 6.928203230275434 12.027086000000002
    vertex -4.575929245846055 0.46996971924888764 12.027086000000002
    vertex -1.8809589070440007 4.19785583244724 12.027086000000002
  endloop
endfacet
facet normal 0.0 0.0 1.0
  outer loop
    vertex -4.000000000000025 6.928203230275434 12.027086000000002
    vertex -1.8809589070440007 4.19785583244724 12.027086000000002
    vertex -3.641850132700193 7.076553762673153 12.027086000000002
  endloop
endfacet
facet normal 0.0 0.0 1.0
  outer loop
    vertex -3.641850132700193 7.076553762673153 12.027086000000002
    vertex -1.8809589070440007 4.19785583244724 12.027086000000002
    vertex 3.641850132700144 7.076553762673147 12.027086000000002
  endloop
endfacet
facet normal 0.0 0.0 1.0
  outer loop
    vertex 3.641850132700144 7.076553762673147 12.027086000000002
    vertex -1.8809589070440007 4.19785583244724 12.027086000000002
    vertex 2.6949703388020323 3.727886113198282 12.027086000000002
  endloop
endfacet
facet normal 0.0 0.0 1.0
  outer loop
    vertex 3.641850132700144 7.076553762673147 12.027086000000002
    vertex 2.6949703388020323 3.727886113198282 12.027086000000002
    vertex 4.57592924584601 -0.4699697192490276 12.027086000000002
  endloop
endfacet
facet normal 0.0 0.0 1.0
  outer loop
    vertex 3.641850132700144 7.076553762673147 12.027086000000002
    vertex 4.57592924584601 -0.4699697192490276 12.027086000000002
    vertex 3.9999999999999707 6.92820323027544 12.027086000000002
  endloop
endfacet
facet normal 0.0 0.0 1.0
  outer loop
    vertex 3.9999999999999707 6.92820323027544 12.027086000000002
    vertex 4.57592924584601 -0.4699697192490276 12.027086000000002
    vertex 5.656854249492355 5.6568542494923095 12.027086000000002
  endloop
endfacet
facet normal -0.9238795325112917 0.38268343236507757 0.0
  outer loop
    vertex -6.928203230275532 3.9999999999999263 12.027086000000002
    vertex -7.076553762673241 3.6418501327000956 7.999999999999999
    vertex -7.076553762673241 3.6418501327000956 12.027086000000002
  endloop
endfacet
facet normal -0.9238795325112917 0.38268343236507757 0.0
  outer loop
    vertex -7.076553762673241 3.6418501327000956 7.999999999999999
    vertex -6.928203230275532 3.9999999999999263 12.027086000000002
    vertex -6.928203230275532 3.9999999999999263 7.999999999999999
  endloop
endfacet
facet normal -1.0 -1.3937804916817389e-14 -0.0
  outer loop
    vertex -7.076553762673241 3.6418501327000956 12.027086000000002
    vertex -7.0765537626731385 -3.6418501327004833 7.999999999999999
    vertex -7.0765537626731385 -3.6418501327004833 12.027086000000002
  endloop
endfacet
facet normal -1.0 -1.3937804916817389e-14 -0.0
  outer loop
    vertex -7.0765537626731385 -3.6418501327004833 7.999999999999999
    vertex -7.076553762673241 3.6418501327000956 12.027086000000002
    vertex -7.076553762673241 3.6418501327000956 7.999999999999999
  endloop
endfacet
facet normal -0.9238795325112905 -0.3826834323650809 -0.0
  outer loop
    vertex -7.0765537626731385 -3.6418501327004833 12.027086000000002
    vertex -6.928203230275529 -4.000000000000072 7.999999999999999
    vertex -6.928203230275529 -4.000000000000072 12.027086000000002
  endloop
endfacet
facet normal -0.9238795325112905 -0.3826834323650809 -0.0
  outer loop
    vertex -6.928203230275529 -4.000000000000072 7.999999999999999
    vertex -7.0765537626731385 -3.6418501327004833 12.027086000000002
    vertex -7.0765537626731385 -3.6418501327004833 7.999999999999999
  endloop
endfacet
facet normal -0.7933533402912349 -0.608761429008721 -0.0
  outer loop
    vertex -6.928203230275529 -4.000000000000072 12.027086000000002
    vertex -5.656854249492401 -5.65685424949245 7.999999999999999
    vertex -5.656854249492401 -5.65685424949245 12.027086000000002
  endloop
endfacet
facet normal -0.7933533402912349 -0.608761429008721 -0.0
  outer loop
    vertex -5.656854249492401 -5.65685424949245 7.999999999999999
    vertex -6.928203230275529 -4.000000000000072 12.027086000000002
    vertex -6.928203230275529 -4.000000000000072 7.999999999999999
  endloop
endfacet
facet normal -0.6087614290087202 -0.7933533402912356 -0.0
  outer loop
    vertex -4.0000000000000195 -6.928203230275578 12.027086000000002
    vertex -5.656854249492401 -5.65685424949245 7.999999999999999
    vertex -4.0000000000000195 -6.928203230275578 7.999999999999999
  endloop
endfacet
facet normal -0.6087614290087202 -0.7933533402912356 -0.0
  outer loop
    vertex -5.656854249492401 -5.65685424949245 7.999999999999999
    vertex -4.0000000000000195 -6.928203230275578 12.027086000000002
    vertex -5.656854249492401 -5.65685424949245 12.027086000000002
  endloop
endfacet
facet normal -0.38268343236507335 -0.9238795325112937 -0.0
  outer loop
    vertex -3.641850132700187 -7.076553762673286 12.027086000000002
    vertex -4.0000000000000195 -6.928203230275578 7.999999999999999
    vertex -3.641850132700187 -7.076553762673286 7.999999999999999
  endloop
endfacet
facet normal -0.38268343236507335 -0.9238795325112937 -0.0
  outer loop
    vertex -4.0000000000000195 -6.928203230275578 7.999999999999999
    vertex -3.641850132700187 -7.076553762673286 12.027086000000002
    vertex -4.0000000000000195 -6.928203230275578 12.027086000000002
  endloop
endfacet
facet normal -9.679031192234625e-16 -1.0 -0.0
  outer loop
    vertex 3.641850132700144 -7.076553762673292 12.027086000000002
    vertex -3.641850132700187 -7.076553762673286 7.999999999999999
    vertex 3.641850132700144 -7.076553762673292 7.999999999999999
  endloop
endfacet
facet normal -9.679031192234625e-16 -1.0 -0.0
  outer loop
    vertex -3.641850132700187 -7.076553762673286 7.999999999999999
    vertex 3.641850132700144 -7.076553762673292 12.027086000000002
    vertex -3.641850132700187 -7.076553762673286 12.027086000000002
  endloop
endfacet
facet normal 0.3826834323650882 -0.9238795325112875 0.0
  outer loop
    vertex 3.9999999999999774 -6.928203230275578 12.027086000000002
    vertex 3.641850132700144 -7.076553762673292 7.999999999999999
    vertex 3.9999999999999774 -6.928203230275578 7.999999999999999
  endloop
endfacet
facet normal 0.3826834323650882 -0.9238795325112875 0.0
  outer loop
    vertex 3.641850132700144 -7.076553762673292 7.999999999999999
    vertex 3.9999999999999774 -6.928203230275578 12.027086000000002
    vertex 3.641850132700144 -7.076553762673292 12.027086000000002
  endloop
endfacet
facet normal 0.6087614290087209 -0.7933533402912349 0.0
  outer loop
    vertex 5.656854249492357 -5.656854249492449 12.027086000000002
    vertex 3.9999999999999774 -6.928203230275578 7.999999999999999
    vertex 5.656854249492357 -5.656854249492449 7.999999999999999
  endloop
endfacet
facet normal 0.6087614290087209 -0.7933533402912349 0.0
  outer loop
    vertex 3.9999999999999774 -6.928203230275578 7.999999999999999
    vertex 5.656854249492357 -5.656854249492449 12.027086000000002
    vertex 3.9999999999999774 -6.928203230275578 12.027086000000002
  endloop
endfacet
facet normal 0.7933533402912353 -0.6087614290087205 0.0
  outer loop
    vertex 6.928203230275485 -4.000000000000068 7.999999999999999
    vertex 5.656854249492357 -5.656854249492449 12.027086000000002
    vertex 5.656854249492357 -5.656854249492449 7.999999999999999
  endloop
endfacet
facet normal 0.7933533402912353 -0.6087614290087205 0.0
  outer loop
    vertex 5.656854249492357 -5.656854249492449 12.027086000000002
    vertex 6.928203230275485 -4.000000000000068 7.999999999999999
    vertex 6.928203230275485 -4.000000000000068 12.027086000000002
  endloop
endfacet
facet normal 0.9238795325112831 -0.3826834323650992 0.0
  outer loop
    vertex 7.0765537626730834 -3.641850132700527 7.999999999999999
    vertex 6.928203230275485 -4.000000000000068 12.027086000000002
    vertex 6.928203230275485 -4.000000000000068 7.999999999999999
  endloop
endfacet
facet normal 0.9238795325112831 -0.3826834323650992 0.0
  outer loop
    vertex 6.928203230275485 -4.000000000000068 12.027086000000002
    vertex 7.0765537626730834 -3.641850132700527 7.999999999999999
    vertex 7.0765537626730834 -3.641850132700527 12.027086000000002
  endloop
endfacet
facet normal 1.0 -1.471212741219601e-14 0.0
  outer loop
    vertex 7.076553762673191 3.6418501327001125 7.999999999999999
    vertex 7.0765537626730834 -3.641850132700527 12.027086000000002
    vertex 7.0765537626730834 -3.641850132700527 7.999999999999999
  endloop
endfacet
facet normal 1.0 -1.471212741219601e-14 0.0
  outer loop
    vertex 7.0765537626730834 -3.641850132700527 12.027086000000002
    vertex 7.076553762673191 3.6418501327001125 7.999999999999999
    vertex 7.076553762673191 3.6418501327001125 12.027086000000002
  endloop
endfacet
facet normal 0.9238795325112876 0.382683432365088 0.0
  outer loop
    vertex 6.928203230275482 3.999999999999932 7.999999999999999
    vertex 7.076553762673191 3.6418501327001125 12.027086000000002
    vertex 7.076553762673191 3.6418501327001125 7.999999999999999
  endloop
endfacet
facet normal 0.9238795325112876 0.382683432365088 0.0
  outer loop
    vertex 7.076553762673191 3.6418501327001125 12.027086000000002
    vertex 6.928203230275482 3.999999999999932 7.999999999999999
    vertex 6.928203230275482 3.999999999999932 12.027086000000002
  endloop
endfacet
facet normal 0.793353340291235 0.6087614290087208 0.0
  outer loop
    vertex 5.656854249492355 5.6568542494923095 7.999999999999999
    vertex 6.928203230275482 3.999999999999932 12.027086000000002
    vertex 6.928203230275482 3.999999999999932 7.999999999999999
  endloop
endfacet
facet normal 0.793353340291235 0.6087614290087208 0.0
  outer loop
    vertex 6.928203230275482 3.999999999999932 12.027086000000002
    vertex 5.656854249492355 5.6568542494923095 7.999999999999999
    vertex 5.656854249492355 5.6568542494923095 12.027086000000002
  endloop
endfacet
facet normal 0.6087614290087202 0.7933533402912355 0.0
  outer loop
    vertex 3.9999999999999707 6.92820323027544 12.027086000000002
    vertex 5.656854249492355 5.6568542494923095 7.999999999999999
    vertex 3.9999999999999707 6.92820323027544 7.999999999999999
  endloop
endfacet
facet normal 0.6087614290087202 0.7933533402912355 0.0
  outer loop
    vertex 5.656854249492355 5.6568542494923095 7.999999999999999
    vertex 3.9999999999999707 6.92820323027544 12.027086000000002
    vertex 5.656854249492355 5.6568542494923095 12.027086000000002
  endloop
endfacet
facet normal 0.38268343236507846 0.9238795325112916 0.0
  outer loop
    vertex 3.641850132700144 7.076553762673147 12.027086000000002
    vertex 3.9999999999999707 6.92820323027544 7.999999999999999
    vertex 3.641850132700144 7.076553762673147 7.999999999999999
  endloop
endfacet
facet normal 0.38268343236507846 0.9238795325112916 0.0
  outer loop
    vertex 3.9999999999999707 6.92820323027544 7.999999999999999
    vertex 3.641850132700144 7.076553762673147 12.027086000000002
    vertex 3.9999999999999707 6.92820323027544 12.027086000000002
  endloop
endfacet
facet normal 7.743224953787695e-16 1.0 0.0
  outer loop
    vertex -3.641850132700193 7.076553762673153 12.027086000000002
    vertex 3.641850132700144 7.076553762673147 7.999999999999999
    vertex -3.641850132700193 7.076553762673153 7.999999999999999
  endloop
endfacet
facet normal 7.743224953787695e-16 1.0 0.0
  outer loop
    vertex 3.641850132700144 7.076553762673147 7.999999999999999
    vertex -3.641850132700193 7.076553762673153 12.027086000000002
    vertex 3.641850132700144 7.076553762673147 12.027086000000002
  endloop
endfacet
facet normal -0.3826834323650981 0.9238795325112833 0.0
  outer loop
    vertex -4.000000000000025 6.928203230275434 12.027086000000002
    vertex -3.641850132700193 7.076553762673153 7.999999999999999
    vertex -4.000000000000025 6.928203230275434 7.999999999999999
  endloop
endfacet
facet normal -0.3826834323650981 0.9238795325112833 0.0
  outer loop
    vertex -3.641850132700193 7.076553762673153 7.999999999999999
    vertex -4.000000000000025 6.928203230275434 12.027086000000002
    vertex -3.641850132700193 7.076553762673153 12.027086000000002
  endloop
endfacet
facet normal -0.6087614290087209 0.7933533402912349 0.0
  outer loop
    vertex -5.656854249492405 5.656854249492305 12.027086000000002
    vertex -4.000000000000025 6.928203230275434 7.999999999999999
    vertex -5.656854249492405 5.656854249492305 7.999999999999999
  endloop
endfacet
facet normal -0.6087614290087209 0.7933533402912349 0.0
  outer loop
    vertex -4.000000000000025 6.928203230275434 7.999999999999999
    vertex -5.656854249492405 5.656854249492305 12.027086000000002
    vertex -4.000000000000025 6.928203230275434 12.027086000000002
  endloop
endfacet
facet normal -0.7933533402912354 0.6087614290087205 0.0
  outer loop
    vertex -5.656854249492405 5.656854249492305 12.027086000000002
    vertex -6.928203230275532 3.9999999999999263 7.999999999999999
    vertex -6.928203230275532 3.9999999999999263 12.027086000000002
  endloop
endfacet
facet normal -0.7933533402912354 0.6087614290087205 0.0
  outer loop
    vertex -6.928203230275532 3.9999999999999263 7.999999999999999
    vertex -5.656854249492405 5.656854249492305 12.027086000000002
    vertex -5.656854249492405 5.656854249492305 7.999999999999999
  endloop
endfacet
facet normal 0.9125773548798507 0.4089041102269518 0.0
  outer loop
    vertex -4.575929245846055 0.46996971924888764 7.999999999999999
    vertex -2.694970338802078 -3.7278861131984233 12.027086000000002
    vertex -2.694970338802078 -3.7278861131984233 7.999999999999999
  endloop
endfacet
facet normal 0.9125773548798507 0.4089041102269518 0.0
  outer loop
    vertex -2.694970338802078 -3.7278861131984233 12.027086000000002
    vertex -4.575929245846055 0.46996971924888764 7.999999999999999
    vertex -4.575929245846055 0.46996971924888764 12.027086000000002
  endloop
endfacet
facet normal 0.8104100246083379 -0.5858631171308817 0.0
  outer loop
    vertex -1.8809589070440007 4.19785583244724 7.999999999999999
    vertex -4.575929245846055 0.46996971924888764 12.027086000000002
    vertex -4.575929245846055 0.46996971924888764 7.999999999999999
  endloop
endfacet
facet normal 0.8104100246083379 -0.5858631171308817 0.0
  outer loop
    vertex -4.575929245846055 0.46996971924888764 12.027086000000002
    vertex -1.8809589070440007 4.19785583244724 7.999999999999999
    vertex -1.8809589070440007 4.19785583244724 12.027086000000002
  endloop
endfacet
facet normal -0.10216733027151259 -0.9947672273578336 -0.0
  outer loop
    vertex 2.6949703388020323 3.727886113198282 12.027086000000002
    vertex -1.8809589070440007 4.19785583244724 7.999999999999999
    vertex 2.6949703388020323 3.727886113198282 7.999999999999999
  endloop
endfacet
facet normal -0.10216733027151259 -0.9947672273578336 -0.0
  outer loop
    vertex -1.8809589070440007 4.19785583244724 7.999999999999999
    vertex 2.6949703388020323 3.727886113198282 12.027086000000002
    vertex -1.8809589070440007 4.19785583244724 12.027086000000002
  endloop
endfacet
facet normal -0.9125773548798507 -0.40890411022695194 -0.0
  outer loop
    vertex 2.6949703388020323 3.727886113198282 12.027086000000002
    vertex 4.57592924584601 -0.4699697192490276 7.999999999999999
    vertex 4.57592924584601 -0.4699697192490276 12.027086000000002
  endloop
endfacet
facet normal -0.9125773548798507 -0.40890411022695194 -0.0
  outer loop
    vertex 4.57592924584601 -0.4699697192490276 7.999999999999999
    vertex 2.6949703388020323 3.727886113198282 12.027086000000002
    vertex 2.6949703388020323 3.727886113198282 7.999999999999999
  endloop
endfacet
facet normal -0.8104100246083382 0.5858631171308812 0.0
  outer loop
    vertex 4.57592924584601 -0.4699697192490276 12.027086000000002
    vertex 1.880958907043958 -4.197855832447381 7.999999999999999
    vertex 1.880958907043958 -4.197855832447381 12.027086000000002
  endloop
endfacet
facet normal -0.8104100246083382 0.5858631171308812 0.0
  outer loop
    vertex 1.880958907043958 -4.197855832447381 7.999999999999999
    vertex 4.57592924584601 -0.4699697192490276 12.027086000000002
    vertex 4.57592924584601 -0.4699697192490276 7.999999999999999
  endloop
endfacet
facet normal 0.10216733027151254 0.9947672273578336 0.0
  outer loop
    vertex -2.694970338802078 -3.7278861131984233 12.027086000000002
    vertex 1.880958907043958 -4.197855832447381 7.999999999999999
    vertex -2.694970338802078 -3.7278861131984233 7.999999999999999
  endloop
endfacet
facet normal 0.10216733027151254 0.9947672273578336 0.0
  outer loop
    vertex 1.880958907043958 -4.197855832447381 7.999999999999999
    vertex -2.694970338802078 -3.7278861131984233 12.027086000000002
    vertex 1.880958907043958 -4.197855832447381 12.027086000000002
  endloop
endfacet
facet normal 0.7071067811865441 -0.7071067811865509 0.0
  outer loop
    vertex 57.88555024883971 -3.6418501327006827 7.999999999999999
    vertex 3.6418501327001436 -57.88555024883973 0.0
    vertex 57.88555024883971 -3.6418501327006827 0.0
  endloop
endfacet
facet normal 0.7071067811865441 -0.7071067811865509 0.0
  outer loop
    vertex 3.6418501327001436 -57.88555024883973 0.0
    vertex 57.88555024883971 -3.6418501327006827 7.999999999999999
    vertex 3.6418501327001436 -57.88555024883973 7.999999999999999
  endloop
endfacet
facet normal 0.7071067811865474 0.7071067811865477 -0.0
  outer loop
    vertex 3.641850132700145 57.88555024883973 7.999999999999999
    vertex 57.88555024883973 3.6418501327001747 0.0
    vertex 3.641850132700145 57.88555024883973 0.0
  endloop
endfacet
facet normal 0.7071067811865474 0.7071067811865477 -0.0
  outer loop
    vertex 57.88555024883973 3.6418501327001747 0.0
    vertex 3.641850132700145 57.88555024883973 7.999999999999999
    vertex 57.88555024883973 3.6418501327001747 7.999999999999999
  endloop
endfacet
facet normal -0.7071067811865487 0.7071067811865465 0.0
  outer loop
    vertex -3.6418501327002146 57.88555024883973 7.999999999999999
    vertex -57.88555024883974 3.641850132700033 0.0
    vertex -57.88555024883974 3.641850132700033 7.999999999999999
  endloop
endfacet
facet normal -0.7071067811865487 0.7071067811865465 0.0
  outer loop
    vertex -57.88555024883974 3.641850132700033 0.0
    vertex -3.6418501327002146 57.88555024883973 7.999999999999999
    vertex -3.6418501327002146 57.88555024883973 0.0
  endloop
endfacet
facet normal 0.0 0.0 -1.0
  outer loop
    vertex -57.88555024883974 3.641850132700033 0.0
    vertex -57.88555024883973 -3.641850132700327 0.0
    vertex -57.999999999999986 -1.474400935927671e-13 0.0
  endloop
endfacet
facet normal 0.0 0.0 -1.0
  outer loop
    vertex -57.88555024883973 -3.641850132700327 0.0
    vertex -57.88555024883974 3.641850132700033 0.0
    vertex -3.6418501327002146 57.88555024883973 0.0
  endloop
endfacet
facet normal 0.0 0.0 -1.0
  outer loop
    vertex -57.88555024883973 -3.641850132700327 0.0
    vertex -3.6418501327002146 57.88555024883973 0.0
    vertex -3.6418501327001653 -57.88555024883973 0.0
  endloop
endfacet
facet normal 0.0 0.0 -1.0
  outer loop
    vertex -3.6418501327001653 -57.88555024883973 0.0
    vertex -3.6418501327002146 57.88555024883973 0.0
    vertex -2.6000000000000227 -7.069962118876657e-14 0.0
  endloop
endfacet
facet normal 0.0 0.0 -1.0
  outer loop
    vertex -2.6000000000000227 -7.069962118876657e-14 0.0
    vertex -3.6418501327002146 57.88555024883973 0.0
    vertex -3.5084285539428116e-14 57.999999999999986 0.0
  endloop
endfacet
facet normal 0.0 0.0 -1.0
  outer loop
    vertex -2.6000000000000227 -7.069962118876657e-14 0.0
    vertex -3.5084285539428116e-14 57.999999999999986 0.0
    vertex -2.5114071483516 0.6729295172664833 0.0
  endloop
endfacet
facet normal 0.0 0.0 -1.0
  outer loop
    vertex -2.5114071483516 0.6729295172664833 0.0
    vertex -3.5084285539428116e-14 57.999999999999986 0.0
    vertex -2.2516660498395633 1.2999999999999292 0.0
  endloop
endfacet
facet normal 0.0 0.0 -1.0
  outer loop
    vertex -2.2516660498395633 1.2999999999999292 0.0
    vertex -3.5084285539428116e-14 57.999999999999986 0.0
    vertex -1.8384776310850464 1.8384776310849524 0.0
  endloop
endfacet
facet normal 0.0 0.0 -1.0
  outer loop
    vertex -1.8384776310850464 1.8384776310849524 0.0
    vertex -3.5084285539428116e-14 57.999999999999986 0.0
    vertex -1.3000000000000231 2.2516660498394696 0.0
  endloop
endfacet
facet normal 0.0 0.0 -1.0
  outer loop
    vertex -1.3000000000000231 2.2516660498394696 0.0
    vertex -3.5084285539428116e-14 57.999999999999986 0.0
    vertex -0.6729295172665772 2.5114071483515064 0.0
  endloop
endfacet
facet normal 0.0 0.0 -1.0
  outer loop
    vertex -0.6729295172665772 2.5114071483515064 0.0
    vertex -3.5084285539428116e-14 57.999999999999986 0.0
    vertex -2.287374818708326e-14 2.5999999999999295 0.0
  endloop
endfacet
facet normal 0.0 0.0 -1.0
  outer loop
    vertex -2.287374818708326e-14 2.5999999999999295 0.0
    vertex -3.5084285539428116e-14 57.999999999999986 0.0
    vertex 3.641850132700145 57.88555024883973 0.0
  endloop
endfacet
facet normal 0.0 0.0 -1.0
  outer loop
    vertex -2.287374818708326e-14 2.5999999999999295 0.0
    vertex 3.641850132700145 57.88555024883973 0.0
    vertex 0.6729295172665309 2.511407148351507 0.0
  endloop
endfacet
facet normal 0.0 0.0 -1.0
  outer loop
    vertex 0.6729295172665309 2.511407148351507 0.0
    vertex 3.641850132700145 57.88555024883973 0.0
    vertex 1.2999999999999767 2.25166604983947 0.0
  endloop
endfacet
facet normal 0.0 0.0 -1.0
  outer loop
    vertex 1.2999999999999767 2.25166604983947 0.0
    vertex 3.641850132700145 57.88555024883973 0.0
    vertex 1.8384776310850008 1.8384776310849529 0.0
  endloop
endfacet
facet normal 0.0 0.0 -1.0
  outer loop
    vertex 1.8384776310850008 1.8384776310849529 0.0
    vertex 3.641850132700145 57.88555024883973 0.0
    vertex 2.251666049839518 1.2999999999999303 0.0
  endloop
endfacet
facet normal 0.0 0.0 -1.0
  outer loop
    vertex 2.251666049839518 1.2999999999999303 0.0
    vertex 3.641850132700145 57.88555024883973 0.0
    vertex 2.5114071483515548 0.672929517266484 0.0
  endloop
endfacet
facet normal 0.0 0.0 -1.0
  outer loop
    vertex 2.5114071483515548 0.672929517266484 0.0
    vertex 3.641850132700145 57.88555024883973 0.0
    vertex 2.5999999999999774 -7.038121302098826e-14 0.0
  endloop
endfacet
facet normal 0.0 0.0 -1.0
  outer loop
    vertex 2.5999999999999774 -7.038121302098826e-14 0.0
    vertex 3.641850132700145 57.88555024883973 0.0
    vertex 3.6418501327001436 -57.88555024883973 0.0
  endloop
endfacet
facet normal 0.0 0.0 -1.0
  outer loop
    vertex 3.6418501327001436 -57.88555024883973 0.0
    vertex 3.641850132700145 57.88555024883973 0.0
    vertex 57.88555024883971 -3.6418501327006827 0.0
  endloop
endfacet
facet normal 0.0 0.0 -1.0
  outer loop
    vertex 57.88555024883971 -3.6418501327006827 0.0
    vertex 3.641850132700145 57.88555024883973 0.0
    vertex 57.88555024883973 3.6418501327001747 0.0
  endloop
endfacet
facet normal 0.0 0.0 -1.0
  outer loop
    vertex 57.88555024883971 -3.6418501327006827 0.0
    vertex 57.88555024883973 3.6418501327001747 0.0
    vertex 57.999999999999986 0.0 0.0
  endloop
endfacet
facet normal 0.0 0.0 -1.0
  outer loop
    vertex -2.6000000000000227 -7.069962118876657e-14 0.0
    vertex -1.0654427152581969e-14 -57.999999999999986 0.0
    vertex -3.6418501327001653 -57.88555024883973 0.0
  endloop
endfacet
facet normal 0.0 0.0 -1.0
  outer loop
    vertex -1.0654427152581969e-14 -57.999999999999986 0.0
    vertex -2.6000000000000227 -7.069962118876657e-14 0.0
    vertex -2.5114071483516 -0.6729295172666268 0.0
  endloop
endfacet
facet normal 0.0 0.0 -1.0
  outer loop
    vertex -1.0654427152581969e-14 -57.999999999999986 0.0
    vertex -2.5114071483516 -0.6729295172666268 0.0
    vertex -2.2516660498395624 -1.300000000000072 0.0
  endloop
endfacet
facet normal 0.0 0.0 -1.0
  outer loop
    vertex -1.0654427152581969e-14 -57.999999999999986 0.0
    vertex -2.2516660498395624 -1.300000000000072 0.0
    vertex -1.838477631085046 -1.838477631085095 0.0
  endloop
endfacet
facet normal 0.0 0.0 -1.0
  outer loop
    vertex -1.0654427152581969e-14 -57.999999999999986 0.0
    vertex -1.838477631085046 -1.838477631085095 0.0
    vertex -1.3000000000000211 -2.2516660498396126 0.0
  endloop
endfacet
facet normal 0.0 0.0 -1.0
  outer loop
    vertex -1.0654427152581969e-14 -57.999999999999986 0.0
    vertex -1.3000000000000211 -2.2516660498396126 0.0
    vertex -0.6729295172665756 -2.511407148351649 0.0
  endloop
endfacet
facet normal 0.0 0.0 -1.0
  outer loop
    vertex -1.0654427152581969e-14 -57.999999999999986 0.0
    vertex -0.6729295172665756 -2.511407148351649 0.0
    vertex -2.2236931851526635e-14 -2.600000000000071 0.0
  endloop
endfacet
facet normal 0.0 0.0 -1.0
  outer loop
    vertex -1.0654427152581969e-14 -57.999999999999986 0.0
    vertex -2.2236931851526635e-14 -2.600000000000071 0.0
    vertex 0.6729295172665333 -2.511407148351648 0.0
  endloop
endfacet
facet normal 0.0 0.0 -1.0
  outer loop
    vertex -1.0654427152581969e-14 -57.999999999999986 0.0
    vertex 0.6729295172665333 -2.511407148351648 0.0
    vertex 3.6418501327001436 -57.88555024883973 0.0
  endloop
endfacet
facet normal 0.0 0.0 -1.0
  outer loop
    vertex 3.6418501327001436 -57.88555024883973 0.0
    vertex 0.6729295172665333 -2.511407148351648 0.0
    vertex 1.2999999999999785 -2.251666049839611 0.0
  endloop
endfacet
facet normal 0.0 0.0 -1.0
  outer loop
    vertex 3.6418501327001436 -57.88555024883973 0.0
    vertex 1.2999999999999785 -2.251666049839611 0.0
    vertex 1.8384776310850022 -1.8384776310850934 0.0
  endloop
endfacet
facet normal 0.0 0.0 -1.0
  outer loop
    vertex 3.6418501327001436 -57.88555024883973 0.0
    vertex 1.8384776310850022 -1.8384776310850934 0.0
    vertex 2.2516660498395185 -1.30000000000007 0.0
  endloop
endfacet
facet normal 0.0 0.0 -1.0
  outer loop
    vertex 3.6418501327001436 -57.88555024883973 0.0
    vertex 2.2516660498395185 -1.30000000000007 0.0
    vertex 2.5114071483515557 -0.6729295172666236 0.0
  endloop
endfacet
facet normal 0.0 0.0 -1.0
  outer loop
    vertex 3.6418501327001436 -57.88555024883973 0.0
    vertex 2.5114071483515557 -0.6729295172666236 0.0
    vertex 2.5999999999999774 -7.038121302098826e-14 0.0
  endloop
endfacet
facet normal -0.7071067811865465 -0.7071067811865486 0.0
  outer loop
    vertex -3.6418501327001653 -57.88555024883973 7.999999999999999
    vertex -57.88555024883973 -3.641850132700327 0.0
    vertex -3.6418501327001653 -57.88555024883973 0.0
  endloop
endfacet
facet normal -0.7071067811865465 -0.7071067811865486 0.0
  outer loop
    vertex -57.88555024883973 -3.641850132700327 0.0
    vertex -3.6418501327001653 -57.88555024883973 7.999999999999999
    vertex -57.88555024883973 -3.641850132700327 7.999999999999999
  endloop
endfacet
endsolid Coil winder
