solid Coil Winder Crank
facet normal 0.0 0.0 -1.0
  outer loop
    vertex -2.5881904510252034 9.659258262890685 0.0
    vertex -2.5999999999999996 0.0 0.0
    vertex -4.999999999999997 8.660254037844389 0.0
  endloop
endfacet
facet normal 0.0 0.0 -1.0
  outer loop
    vertex -2.5999999999999996 0.0 0.0
    vertex -2.5881904510252034 9.659258262890685 0.0
    vertex -2.511407148351577 0.672929517266556 0.0
  endloop
endfacet
facet normal 0.0 0.0 -1.0
  outer loop
    vertex -2.511407148351577 0.672929517266556 0.0
    vertex -2.5881904510252034 9.659258262890685 0.0
    vertex 1.2246467991473533e-15 10.0 0.0
  endloop
endfacet
facet normal 0.0 0.0 -1.0
  outer loop
    vertex -2.511407148351577 0.672929517266556 0.0
    vertex 1.2246467991473533e-15 10.0 0.0
    vertex -2.2516660498395398 1.3000000000000012 0.0
  endloop
endfacet
facet normal 0.0 0.0 -1.0
  outer loop
    vertex -2.2516660498395398 1.3000000000000012 0.0
    vertex 1.2246467991473533e-15 10.0 0.0
    vertex -1.838477631085023 1.8384776310850237 0.0
  endloop
endfacet
facet normal 0.0 0.0 -1.0
  outer loop
    vertex -1.838477631085023 1.8384776310850237 0.0
    vertex 1.2246467991473533e-15 10.0 0.0
    vertex -1.299999999999998 2.2516660498395416 0.0
  endloop
endfacet
facet normal 0.0 0.0 -1.0
  outer loop
    vertex -1.299999999999998 2.2516660498395416 0.0
    vertex 1.2246467991473533e-15 10.0 0.0
    vertex -0.6729295172665527 2.511407148351578 0.0
  endloop
endfacet
facet normal 0.0 0.0 -1.0
  outer loop
    vertex -0.6729295172665527 2.511407148351578 0.0
    vertex 1.2246467991473533e-15 10.0 0.0
    vertex 4.776122516674677e-16 2.5999999999999996 0.0
  endloop
endfacet
facet normal 0.0 0.0 -1.0
  outer loop
    vertex 4.776122516674677e-16 2.5999999999999996 0.0
    vertex 1.2246467991473533e-15 10.0 0.0
    vertex 0.6729295172665559 2.511407148351577 0.0
  endloop
endfacet
facet normal 0.0 0.0 -1.0
  outer loop
    vertex 0.6729295172665559 2.511407148351577 0.0
    vertex 1.2246467991473533e-15 10.0 0.0
    vertex 70.0 10.0 0.0
  endloop
endfacet
facet normal 0.0 0.0 -1.0
  outer loop
    vertex 0.6729295172665559 2.511407148351577 0.0
    vertex 70.0 10.0 0.0
    vertex 1.3000000000000012 2.2516660498395398 0.0
  endloop
endfacet
facet normal 0.0 0.0 -1.0
  outer loop
    vertex 1.3000000000000012 2.2516660498395398 0.0
    vertex 70.0 10.0 0.0
    vertex 1.8384776310850244 1.8384776310850224 0.0
  endloop
endfacet
facet normal 0.0 0.0 -1.0
  outer loop
    vertex 1.8384776310850244 1.8384776310850224 0.0
    vertex 70.0 10.0 0.0
    vertex 2.2516660498395407 1.2999999999999992 0.0
  endloop
endfacet
facet normal 0.0 0.0 -1.0
  outer loop
    vertex 2.2516660498395407 1.2999999999999992 0.0
    vertex 70.0 10.0 0.0
    vertex 2.511407148351578 0.6729295172665528 0.0
  endloop
endfacet
facet normal 0.0 0.0 -1.0
  outer loop
    vertex 2.511407148351578 0.6729295172665528 0.0
    vertex 70.0 10.0 0.0
    vertex 2.5999999999999996 -3.184081677783118e-16 0.0
  endloop
endfacet
facet normal 0.0 0.0 -1.0
  outer loop
    vertex 2.5999999999999996 -3.184081677783118e-16 0.0
    vertex 70.0 10.0 0.0
    vertex 67.48859285164842 0.6729295172665527 0.0
  endloop
endfacet
facet normal 0.0 0.0 -1.0
  outer loop
    vertex 2.5999999999999996 -3.184081677783118e-16 0.0
    vertex 67.48859285164842 0.6729295172665527 0.0
    vertex 67.4 -6.61703944750761e-31 0.0
  endloop
endfacet
facet normal 0.0 0.0 -1.0
  outer loop
    vertex 67.48859285164842 0.6729295172665527 0.0
    vertex 70.0 10.0 0.0
    vertex 67.74833395016046 1.2999999999999974 0.0
  endloop
endfacet
facet normal 0.0 0.0 -1.0
  outer loop
    vertex 67.74833395016046 1.2999999999999974 0.0
    vertex 70.0 10.0 0.0
    vertex 68.16152236891497 1.8384776310850202 0.0
  endloop
endfacet
facet normal 0.0 0.0 -1.0
  outer loop
    vertex 68.16152236891497 1.8384776310850202 0.0
    vertex 70.0 10.0 0.0
    vertex 68.7 2.251666049839536 0.0
  endloop
endfacet
facet normal 0.0 0.0 -1.0
  outer loop
    vertex 68.7 2.251666049839536 0.0
    vertex 70.0 10.0 0.0
    vertex 69.32707048273345 2.511407148351573 0.0
  endloop
endfacet
facet normal 0.0 0.0 -1.0
  outer loop
    vertex 69.32707048273345 2.511407148351573 0.0
    vertex 70.0 10.0 0.0
    vertex 70.0 2.599999999999995 0.0
  endloop
endfacet
facet normal 0.0 0.0 -1.0
  outer loop
    vertex 70.0 2.599999999999995 0.0
    vertex 70.0 10.0 0.0
    vertex 72.58819045102521 9.659258262890681 0.0
  endloop
endfacet
facet normal 0.0 0.0 -1.0
  outer loop
    vertex 70.0 2.599999999999995 0.0
    vertex 72.58819045102521 9.659258262890681 0.0
    vertex 70.67292951726655 2.511407148351573 0.0
  endloop
endfacet
facet normal 0.0 0.0 -1.0
  outer loop
    vertex 70.67292951726655 2.511407148351573 0.0
    vertex 72.58819045102521 9.659258262890681 0.0
    vertex 71.3 2.2516660498395367 0.0
  endloop
endfacet
facet normal 0.0 0.0 -1.0
  outer loop
    vertex 71.3 2.2516660498395367 0.0
    vertex 72.58819045102521 9.659258262890681 0.0
    vertex 71.83847763108501 1.8384776310850202 0.0
  endloop
endfacet
facet normal 0.0 0.0 -1.0
  outer loop
    vertex 71.83847763108501 1.8384776310850202 0.0
    vertex 72.58819045102521 9.659258262890681 0.0
    vertex 72.25166604983954 1.2999999999999985 0.0
  endloop
endfacet
facet normal 0.0 0.0 -1.0
  outer loop
    vertex 72.25166604983954 1.2999999999999985 0.0
    vertex 72.58819045102521 9.659258262890681 0.0
    vertex 72.51140714835157 0.6729295172665535 0.0
  endloop
endfacet
facet normal 0.0 0.0 -1.0
  outer loop
    vertex 72.51140714835157 0.6729295172665535 0.0
    vertex 72.58819045102521 9.659258262890681 0.0
    vertex 72.6 3.184081677783106e-16 0.0
  endloop
endfacet
facet normal 0.0 0.0 -1.0
  outer loop
    vertex 72.6 3.184081677783106e-16 0.0
    vertex 72.58819045102521 9.659258262890681 0.0
    vertex 75.0 8.660254037844384 0.0
  endloop
endfacet
facet normal 0.0 0.0 -1.0
  outer loop
    vertex -9.659258262890681 2.5881904510252154 0.0
    vertex -9.659258262890685 -2.588190451025203 0.0
    vertex -10.0 1.8369701987210296e-15 0.0
  endloop
endfacet
facet normal 0.0 0.0 -1.0
  outer loop
    vertex -9.659258262890685 -2.588190451025203 0.0
    vertex -9.659258262890681 2.5881904510252154 0.0
    vertex -8.66025403784439 -4.999999999999994 0.0
  endloop
endfacet
facet normal 0.0 0.0 -1.0
  outer loop
    vertex -8.66025403784439 -4.999999999999994 0.0
    vertex -9.659258262890681 2.5881904510252154 0.0
    vertex -8.660254037844384 5.000000000000004 0.0
  endloop
endfacet
facet normal 0.0 0.0 -1.0
  outer loop
    vertex -8.66025403784439 -4.999999999999994 0.0
    vertex -8.660254037844384 5.000000000000004 0.0
    vertex -7.071067811865477 -7.071067811865473 0.0
  endloop
endfacet
facet normal 0.0 0.0 -1.0
  outer loop
    vertex -7.071067811865477 -7.071067811865473 0.0
    vertex -8.660254037844384 5.000000000000004 0.0
    vertex -7.071067811865472 7.071067811865479 0.0
  endloop
endfacet
facet normal 0.0 0.0 -1.0
  outer loop
    vertex -7.071067811865477 -7.071067811865473 0.0
    vertex -7.071067811865472 7.071067811865479 0.0
    vertex -5.000000000000004 -8.660254037844384 0.0
  endloop
endfacet
facet normal 0.0 0.0 -1.0
  outer loop
    vertex -5.000000000000004 -8.660254037844384 0.0
    vertex -7.071067811865472 7.071067811865479 0.0
    vertex -4.999999999999997 8.660254037844389 0.0
  endloop
endfacet
facet normal 0.0 0.0 -1.0
  outer loop
    vertex -5.000000000000004 -8.660254037844384 0.0
    vertex -4.999999999999997 8.660254037844389 0.0
    vertex -2.588190451025216 -9.659258262890681 0.0
  endloop
endfacet
facet normal 0.0 0.0 -1.0
  outer loop
    vertex -2.588190451025216 -9.659258262890681 0.0
    vertex -4.999999999999997 8.660254037844389 0.0
    vertex -2.5999999999999996 0.0 0.0
  endloop
endfacet
facet normal 0.0 0.0 -1.0
  outer loop
    vertex -2.588190451025216 -9.659258262890681 0.0
    vertex -2.5999999999999996 0.0 0.0
    vertex -2.5114071483515774 -0.6729295172665539 0.0
  endloop
endfacet
facet normal 0.0 0.0 -1.0
  outer loop
    vertex -2.588190451025216 -9.659258262890681 0.0
    vertex -2.5114071483515774 -0.6729295172665539 0.0
    vertex 0.0 -10.0 0.0
  endloop
endfacet
facet normal 0.0 0.0 -1.0
  outer loop
    vertex 0.0 -10.0 0.0
    vertex -2.5114071483515774 -0.6729295172665539 0.0
    vertex -2.25166604983954 -1.2999999999999998 0.0
  endloop
endfacet
facet normal 0.0 0.0 -1.0
  outer loop
    vertex 0.0 -10.0 0.0
    vertex -2.25166604983954 -1.2999999999999998 0.0
    vertex -1.8384776310850237 -1.8384776310850233 0.0
  endloop
endfacet
facet normal 0.0 0.0 -1.0
  outer loop
    vertex 0.0 -10.0 0.0
    vertex -1.8384776310850237 -1.8384776310850233 0.0
    vertex -1.3000000000000003 -2.25166604983954 0.0
  endloop
endfacet
facet normal 0.0 0.0 -1.0
  outer loop
    vertex 0.0 -10.0 0.0
    vertex -1.3000000000000003 -2.25166604983954 0.0
    vertex -0.6729295172665544 -2.511407148351577 0.0
  endloop
endfacet
facet normal 0.0 0.0 -1.0
  outer loop
    vertex 0.0 -10.0 0.0
    vertex -0.6729295172665544 -2.511407148351577 0.0
    vertex -1.592040838891559e-16 -2.5999999999999996 0.0
  endloop
endfacet
facet normal 0.0 0.0 -1.0
  outer loop
    vertex 0.0 -10.0 0.0
    vertex -1.592040838891559e-16 -2.5999999999999996 0.0
    vertex 0.6729295172665536 -2.5114071483515774 0.0
  endloop
endfacet
facet normal 0.0 0.0 -1.0
  outer loop
    vertex 0.0 -10.0 0.0
    vertex 0.6729295172665536 -2.5114071483515774 0.0
    vertex 70.0 -10.0 0.0
  endloop
endfacet
facet normal 0.0 0.0 -1.0
  outer loop
    vertex 70.0 -10.0 0.0
    vertex 0.6729295172665536 -2.5114071483515774 0.0
    vertex 1.2999999999999994 -2.25166604983954 0.0
  endloop
endfacet
facet normal 0.0 0.0 -1.0
  outer loop
    vertex 70.0 -10.0 0.0
    vertex 1.2999999999999994 -2.25166604983954 0.0
    vertex 1.8384776310850233 -1.8384776310850237 0.0
  endloop
endfacet
facet normal 0.0 0.0 -1.0
  outer loop
    vertex 70.0 -10.0 0.0
    vertex 1.8384776310850233 -1.8384776310850237 0.0
    vertex 2.25166604983954 -1.3000000000000007 0.0
  endloop
endfacet
facet normal 0.0 0.0 -1.0
  outer loop
    vertex 70.0 -10.0 0.0
    vertex 2.25166604983954 -1.3000000000000007 0.0
    vertex 2.511407148351577 -0.6729295172665546 0.0
  endloop
endfacet
facet normal 0.0 0.0 -1.0
  outer loop
    vertex 70.0 -10.0 0.0
    vertex 2.511407148351577 -0.6729295172665546 0.0
    vertex 2.5999999999999996 -3.184081677783118e-16 0.0
  endloop
endfacet
facet normal 0.0 0.0 -1.0
  outer loop
    vertex 70.0 -10.0 0.0
    vertex 2.5999999999999996 -3.184081677783118e-16 0.0
    vertex 67.48859285164842 -0.6729295172665548 0.0
  endloop
endfacet
facet normal 0.0 0.0 -1.0
  outer loop
    vertex 67.48859285164842 -0.6729295172665548 0.0
    vertex 2.5999999999999996 -3.184081677783118e-16 0.0
    vertex 67.4 -6.61703944750761e-31 0.0
  endloop
endfacet
facet normal 0.0 0.0 -1.0
  outer loop
    vertex 70.0 -10.0 0.0
    vertex 67.48859285164842 -0.6729295172665548 0.0
    vertex 67.74833395016046 -1.299999999999999 0.0
  endloop
endfacet
facet normal 0.0 0.0 -1.0
  outer loop
    vertex 70.0 -10.0 0.0
    vertex 67.74833395016046 -1.299999999999999 0.0
    vertex 68.16152236891497 -1.8384776310850206 0.0
  endloop
endfacet
facet normal 0.0 0.0 -1.0
  outer loop
    vertex 70.0 -10.0 0.0
    vertex 68.16152236891497 -1.8384776310850206 0.0
    vertex 68.7 -2.2516660498395376 0.0
  endloop
endfacet
facet normal 0.0 0.0 -1.0
  outer loop
    vertex 70.0 -10.0 0.0
    vertex 68.7 -2.2516660498395376 0.0
    vertex 69.32707048273345 -2.5114071483515734 0.0
  endloop
endfacet
facet normal 0.0 0.0 -1.0
  outer loop
    vertex 70.0 -10.0 0.0
    vertex 69.32707048273345 -2.5114071483515734 0.0
    vertex 70.0 -2.599999999999995 0.0
  endloop
endfacet
facet normal 0.0 0.0 -1.0
  outer loop
    vertex 70.0 -10.0 0.0
    vertex 70.0 -2.599999999999995 0.0
    vertex 70.67292951726655 -2.5114071483515725 0.0
  endloop
endfacet
facet normal 0.0 0.0 -1.0
  outer loop
    vertex 70.0 -10.0 0.0
    vertex 70.67292951726655 -2.5114071483515725 0.0
    vertex 72.5881904510252 -9.659258262890685 0.0
  endloop
endfacet
facet normal 0.0 0.0 -1.0
  outer loop
    vertex 72.5881904510252 -9.659258262890685 0.0
    vertex 70.67292951726655 -2.5114071483515725 0.0
    vertex 71.3 -2.2516660498395358 0.0
  endloop
endfacet
facet normal 0.0 0.0 -1.0
  outer loop
    vertex 72.5881904510252 -9.659258262890685 0.0
    vertex 71.3 -2.2516660498395358 0.0
    vertex 71.83847763108501 -1.838477631085019 0.0
  endloop
endfacet
facet normal 0.0 0.0 -1.0
  outer loop
    vertex 72.5881904510252 -9.659258262890685 0.0
    vertex 71.83847763108501 -1.838477631085019 0.0
    vertex 72.25166604983954 -1.299999999999997 0.0
  endloop
endfacet
facet normal 0.0 0.0 -1.0
  outer loop
    vertex 72.5881904510252 -9.659258262890685 0.0
    vertex 72.25166604983954 -1.299999999999997 0.0
    vertex 72.51140714835157 -0.6729295172665517 0.0
  endloop
endfacet
facet normal 0.0 0.0 -1.0
  outer loop
    vertex 72.5881904510252 -9.659258262890685 0.0
    vertex 72.51140714835157 -0.6729295172665517 0.0
    vertex 72.6 3.184081677783106e-16 0.0
  endloop
endfacet
facet normal 0.0 0.0 -1.0
  outer loop
    vertex 72.5881904510252 -9.659258262890685 0.0
    vertex 72.6 3.184081677783106e-16 0.0
    vertex 75.0 -8.660254037844389 0.0
  endloop
endfacet
facet normal 0.0 0.0 -1.0
  outer loop
    vertex 75.0 -8.660254037844389 0.0
    vertex 72.6 3.184081677783106e-16 0.0
    vertex 75.0 8.660254037844384 0.0
  endloop
endfacet
facet normal 0.0 0.0 -1.0
  outer loop
    vertex 75.0 -8.660254037844389 0.0
    vertex 75.0 8.660254037844384 0.0
    vertex 77.07106781186548 7.071067811865473 0.0
  endloop
endfacet
facet normal 0.0 0.0 -1.0
  outer loop
    vertex 75.0 -8.660254037844389 0.0
    vertex 77.07106781186548 7.071067811865473 0.0
    vertex 77.07106781186546 -7.071067811865479 0.0
  endloop
endfacet
facet normal 0.0 0.0 -1.0
  outer loop
    vertex 77.07106781186546 -7.071067811865479 0.0
    vertex 77.07106781186548 7.071067811865473 0.0
    vertex 78.66025403784438 -5.000000000000004 0.0
  endloop
endfacet
facet normal 0.0 0.0 -1.0
  outer loop
    vertex 78.66025403784438 -5.000000000000004 0.0
    vertex 77.07106781186548 7.071067811865473 0.0
    vertex 78.66025403784438 4.999999999999994 0.0
  endloop
endfacet
facet normal 0.0 0.0 -1.0
  outer loop
    vertex 78.66025403784438 -5.000000000000004 0.0
    vertex 78.66025403784438 4.999999999999994 0.0
    vertex 79.65925826289069 -2.5881904510252154 0.0
  endloop
endfacet
facet normal 0.0 0.0 -1.0
  outer loop
    vertex 79.65925826289069 -2.5881904510252154 0.0
    vertex 78.66025403784438 4.999999999999994 0.0
    vertex 79.65925826289069 2.588190451025203 0.0
  endloop
endfacet
facet normal 0.0 0.0 -1.0
  outer loop
    vertex 79.65925826289069 -2.5881904510252154 0.0
    vertex 79.65925826289069 2.588190451025203 0.0
    vertex 80.0 -1.8369701987210296e-15 0.0
  endloop
endfacet
facet normal 3.820299849935453e-33 -4.7763988166006575e-32 1.0
  outer loop
    vertex -9.659258262890685 -2.588190451025203 6.0
    vertex -9.659258262890681 2.5881904510252154 6.0
    vertex -10.0 1.8369701987210296e-15 6.0
  endloop
endfacet
facet normal 3.820299849935453e-33 -4.7763988166006575e-32 1.0
  outer loop
    vertex -9.659258262890681 2.5881904510252154 6.0
    vertex -9.659258262890685 -2.588190451025203 6.0
    vertex -8.66025403784439 -4.999999999999994 6.0
  endloop
endfacet
facet normal 3.820299849935453e-33 -4.7763988166006575e-32 1.0
  outer loop
    vertex -9.659258262890681 2.5881904510252154 6.0
    vertex -8.66025403784439 -4.999999999999994 6.0
    vertex -8.660254037844384 5.000000000000004 6.0
  endloop
endfacet
facet normal 3.820299849935453e-33 -4.7763988166006575e-32 1.0
  outer loop
    vertex -8.660254037844384 5.000000000000004 6.0
    vertex -8.66025403784439 -4.999999999999994 6.0
    vertex -7.071067811865477 -7.071067811865473 6.0
  endloop
endfacet
facet normal 3.820299849935453e-33 -4.7763988166006575e-32 1.0
  outer loop
    vertex -8.660254037844384 5.000000000000004 6.0
    vertex -7.071067811865477 -7.071067811865473 6.0
    vertex -7.071067811865472 7.071067811865479 6.0
  endloop
endfacet
facet normal 3.820299849935453e-33 -4.7763988166006575e-32 1.0
  outer loop
    vertex -7.071067811865472 7.071067811865479 6.0
    vertex -7.071067811865477 -7.071067811865473 6.0
    vertex -5.000000000000004 -8.660254037844384 6.0
  endloop
endfacet
facet normal 3.820299849935453e-33 -4.7763988166006575e-32 1.0
  outer loop
    vertex -7.071067811865472 7.071067811865479 6.0
    vertex -5.000000000000004 -8.660254037844384 6.0
    vertex -4.999999999999997 8.660254037844389 6.0
  endloop
endfacet
facet normal 3.820299849935453e-33 -4.7763988166006575e-32 1.0
  outer loop
    vertex -4.999999999999997 8.660254037844389 6.0
    vertex -5.000000000000004 -8.660254037844384 6.0
    vertex -4.5 5.51091059616309e-16 6.0
  endloop
endfacet
facet normal 3.820299849935453e-33 -4.7763988166006575e-32 1.0
  outer loop
    vertex -4.5 5.51091059616309e-16 6.0
    vertex -5.000000000000004 -8.660254037844384 6.0
    vertex -2.588190451025216 -9.659258262890681 6.0
  endloop
endfacet
facet normal 3.820299849935453e-33 -4.7763988166006575e-32 1.0
  outer loop
    vertex -4.5 5.51091059616309e-16 6.0
    vertex -2.588190451025216 -9.659258262890681 6.0
    vertex -2.250000000000002 -3.8971143170299727 6.0
  endloop
endfacet
facet normal 3.820299849935453e-33 -4.7763988166006575e-32 1.0
  outer loop
    vertex -2.250000000000002 -3.8971143170299727 6.0
    vertex -2.588190451025216 -9.659258262890681 6.0
    vertex 0.0 -10.0 6.0
  endloop
endfacet
facet normal 3.820299849935453e-33 -4.7763988166006575e-32 1.0
  outer loop
    vertex -2.250000000000002 -3.8971143170299727 6.0
    vertex 0.0 -10.0 6.0
    vertex 2.249999999999997 -3.8971143170299753 6.0
  endloop
endfacet
facet normal 3.820299849935453e-33 -4.7763988166006575e-32 1.0
  outer loop
    vertex 2.249999999999997 -3.8971143170299753 6.0
    vertex 0.0 -10.0 6.0
    vertex 70.0 -10.0 6.0
  endloop
endfacet
facet normal 3.820299849935453e-33 -4.7763988166006575e-32 1.0
  outer loop
    vertex 2.249999999999997 -3.8971143170299753 6.0
    vertex 70.0 -10.0 6.0
    vertex 4.5 0.0 6.0
  endloop
endfacet
facet normal 3.820299849935453e-33 -4.7763988166006575e-32 1.0
  outer loop
    vertex 4.5 0.0 6.0
    vertex 70.0 -10.0 6.0
    vertex 67.48859285164842 -0.6729295172665548 6.0
  endloop
endfacet
facet normal 3.820299849935453e-33 -4.7763988166006575e-32 1.0
  outer loop
    vertex 4.5 0.0 6.0
    vertex 67.48859285164842 -0.6729295172665548 6.0
    vertex 67.4 0.0 6.0
  endloop
endfacet
facet normal 3.820299849935453e-33 -4.7763988166006575e-32 1.0
  outer loop
    vertex 67.48859285164842 -0.6729295172665548 6.0
    vertex 70.0 -10.0 6.0
    vertex 67.74833395016046 -1.299999999999999 6.0
  endloop
endfacet
facet normal 3.820299849935453e-33 -4.7763988166006575e-32 1.0
  outer loop
    vertex 67.74833395016046 -1.299999999999999 6.0
    vertex 70.0 -10.0 6.0
    vertex 68.16152236891497 -1.8384776310850206 6.0
  endloop
endfacet
facet normal 3.820299849935453e-33 -4.7763988166006575e-32 1.0
  outer loop
    vertex 68.16152236891497 -1.8384776310850206 6.0
    vertex 70.0 -10.0 6.0
    vertex 68.7 -2.2516660498395376 6.0
  endloop
endfacet
facet normal 3.820299849935453e-33 -4.7763988166006575e-32 1.0
  outer loop
    vertex 68.7 -2.2516660498395376 6.0
    vertex 70.0 -10.0 6.0
    vertex 69.32707048273345 -2.5114071483515734 6.0
  endloop
endfacet
facet normal 3.820299849935453e-33 -4.7763988166006575e-32 1.0
  outer loop
    vertex 69.32707048273345 -2.5114071483515734 6.0
    vertex 70.0 -10.0 6.0
    vertex 70.0 -2.599999999999995 6.0
  endloop
endfacet
facet normal 3.820299849935453e-33 -4.7763988166006575e-32 1.0
  outer loop
    vertex 70.0 -2.599999999999995 6.0
    vertex 70.0 -10.0 6.0
    vertex 72.5881904510252 -9.659258262890685 6.0
  endloop
endfacet
facet normal 3.820299849935453e-33 -4.7763988166006575e-32 1.0
  outer loop
    vertex 70.0 -2.599999999999995 6.0
    vertex 72.5881904510252 -9.659258262890685 6.0
    vertex 70.67292951726655 -2.5114071483515725 6.0
  endloop
endfacet
facet normal 3.820299849935453e-33 -4.7763988166006575e-32 1.0
  outer loop
    vertex 70.67292951726655 -2.5114071483515725 6.0
    vertex 72.5881904510252 -9.659258262890685 6.0
    vertex 71.3 -2.2516660498395358 6.0
  endloop
endfacet
facet normal 3.820299849935453e-33 -4.7763988166006575e-32 1.0
  outer loop
    vertex 71.3 -2.2516660498395358 6.0
    vertex 72.5881904510252 -9.659258262890685 6.0
    vertex 71.83847763108501 -1.838477631085019 6.0
  endloop
endfacet
facet normal 3.820299849935453e-33 -4.7763988166006575e-32 1.0
  outer loop
    vertex 71.83847763108501 -1.838477631085019 6.0
    vertex 72.5881904510252 -9.659258262890685 6.0
    vertex 72.25166604983954 -1.299999999999997 6.0
  endloop
endfacet
facet normal 3.820299849935453e-33 -4.7763988166006575e-32 1.0
  outer loop
    vertex 72.25166604983954 -1.299999999999997 6.0
    vertex 72.5881904510252 -9.659258262890685 6.0
    vertex 72.51140714835157 -0.6729295172665517 6.0
  endloop
endfacet
facet normal 3.820299849935453e-33 -4.7763988166006575e-32 1.0
  outer loop
    vertex 72.51140714835157 -0.6729295172665517 6.0
    vertex 72.5881904510252 -9.659258262890685 6.0
    vertex 72.6 3.1840816777831123e-16 6.0
  endloop
endfacet
facet normal 3.820299849935453e-33 -4.7763988166006575e-32 1.0
  outer loop
    vertex 72.6 3.1840816777831123e-16 6.0
    vertex 72.5881904510252 -9.659258262890685 6.0
    vertex 75.0 -8.660254037844389 6.0
  endloop
endfacet
facet normal 3.820299849935453e-33 -4.7763988166006575e-32 1.0
  outer loop
    vertex -4.5 5.51091059616309e-16 6.0
    vertex -2.5881904510252034 9.659258262890685 6.0
    vertex -4.999999999999997 8.660254037844389 6.0
  endloop
endfacet
facet normal 3.820299849935453e-33 -4.7763988166006575e-32 1.0
  outer loop
    vertex -2.5881904510252034 9.659258262890685 6.0
    vertex -4.5 5.51091059616309e-16 6.0
    vertex -2.249999999999999 3.897114317029974 6.0
  endloop
endfacet
facet normal 3.820299849935453e-33 -4.7763988166006575e-32 1.0
  outer loop
    vertex -2.5881904510252034 9.659258262890685 6.0
    vertex -2.249999999999999 3.897114317029974 6.0
    vertex 1.2246467991473533e-15 10.0 6.0
  endloop
endfacet
facet normal 3.820299849935453e-33 -4.7763988166006575e-32 1.0
  outer loop
    vertex 1.2246467991473533e-15 10.0 6.0
    vertex -2.249999999999999 3.897114317029974 6.0
    vertex 2.2500000000000004 3.897114317029974 6.0
  endloop
endfacet
facet normal 3.820299849935453e-33 -4.7763988166006575e-32 1.0
  outer loop
    vertex 1.2246467991473533e-15 10.0 6.0
    vertex 2.2500000000000004 3.897114317029974 6.0
    vertex 70.0 10.0 6.0
  endloop
endfacet
facet normal 3.820299849935453e-33 -4.7763988166006575e-32 1.0
  outer loop
    vertex 70.0 10.0 6.0
    vertex 2.2500000000000004 3.897114317029974 6.0
    vertex 4.5 0.0 6.0
  endloop
endfacet
facet normal 3.820299849935453e-33 -4.7763988166006575e-32 1.0
  outer loop
    vertex 70.0 10.0 6.0
    vertex 4.5 0.0 6.0
    vertex 67.48859285164842 0.6729295172665527 6.0
  endloop
endfacet
facet normal 3.820299849935453e-33 -4.7763988166006575e-32 1.0
  outer loop
    vertex 67.48859285164842 0.6729295172665527 6.0
    vertex 4.5 0.0 6.0
    vertex 67.4 0.0 6.0
  endloop
endfacet
facet normal 3.820299849935453e-33 -4.7763988166006575e-32 1.0
  outer loop
    vertex 70.0 10.0 6.0
    vertex 67.48859285164842 0.6729295172665527 6.0
    vertex 67.74833395016046 1.2999999999999974 6.0
  endloop
endfacet
facet normal 3.820299849935453e-33 -4.7763988166006575e-32 1.0
  outer loop
    vertex 70.0 10.0 6.0
    vertex 67.74833395016046 1.2999999999999974 6.0
    vertex 68.16152236891497 1.8384776310850202 6.0
  endloop
endfacet
facet normal 3.820299849935453e-33 -4.7763988166006575e-32 1.0
  outer loop
    vertex 70.0 10.0 6.0
    vertex 68.16152236891497 1.8384776310850202 6.0
    vertex 68.7 2.251666049839536 6.0
  endloop
endfacet
facet normal 3.820299849935453e-33 -4.7763988166006575e-32 1.0
  outer loop
    vertex 70.0 10.0 6.0
    vertex 68.7 2.251666049839536 6.0
    vertex 69.32707048273345 2.511407148351573 6.0
  endloop
endfacet
facet normal 3.820299849935453e-33 -4.7763988166006575e-32 1.0
  outer loop
    vertex 70.0 10.0 6.0
    vertex 69.32707048273345 2.511407148351573 6.0
    vertex 70.0 2.599999999999995 6.0
  endloop
endfacet
facet normal 3.820299849935453e-33 -4.7763988166006575e-32 1.0
  outer loop
    vertex 70.0 10.0 6.0
    vertex 70.0 2.599999999999995 6.0
    vertex 70.67292951726655 2.511407148351573 6.0
  endloop
endfacet
facet normal 3.820299849935453e-33 -4.7763988166006575e-32 1.0
  outer loop
    vertex 70.0 10.0 6.0
    vertex 70.67292951726655 2.511407148351573 6.0
    vertex 72.58819045102521 9.659258262890681 6.0
  endloop
endfacet
facet normal 3.820299849935453e-33 -4.7763988166006575e-32 1.0
  outer loop
    vertex 72.58819045102521 9.659258262890681 6.0
    vertex 70.67292951726655 2.511407148351573 6.0
    vertex 71.3 2.2516660498395367 6.0
  endloop
endfacet
facet normal 3.820299849935453e-33 -4.7763988166006575e-32 1.0
  outer loop
    vertex 72.58819045102521 9.659258262890681 6.0
    vertex 71.3 2.2516660498395367 6.0
    vertex 71.83847763108501 1.8384776310850202 6.0
  endloop
endfacet
facet normal 3.820299849935453e-33 -4.7763988166006575e-32 1.0
  outer loop
    vertex 72.58819045102521 9.659258262890681 6.0
    vertex 71.83847763108501 1.8384776310850202 6.0
    vertex 72.25166604983954 1.2999999999999985 6.0
  endloop
endfacet
facet normal 3.820299849935453e-33 -4.7763988166006575e-32 1.0
  outer loop
    vertex 72.58819045102521 9.659258262890681 6.0
    vertex 72.25166604983954 1.2999999999999985 6.0
    vertex 72.51140714835157 0.6729295172665535 6.0
  endloop
endfacet
facet normal 3.820299849935453e-33 -4.7763988166006575e-32 1.0
  outer loop
    vertex 72.58819045102521 9.659258262890681 6.0
    vertex 72.51140714835157 0.6729295172665535 6.0
    vertex 72.6 3.1840816777831123e-16 6.0
  endloop
endfacet
facet normal 3.820299849935453e-33 -4.7763988166006575e-32 1.0
  outer loop
    vertex 72.58819045102521 9.659258262890681 6.0
    vertex 72.6 3.1840816777831123e-16 6.0
    vertex 75.0 8.660254037844384 6.0
  endloop
endfacet
facet normal 3.820299849935453e-33 -4.7763988166006575e-32 1.0
  outer loop
    vertex 75.0 8.660254037844384 6.0
    vertex 72.6 3.1840816777831123e-16 6.0
    vertex 75.0 -8.660254037844389 6.0
  endloop
endfacet
facet normal 3.820299849935453e-33 -4.7763988166006575e-32 1.0
  outer loop
    vertex 75.0 8.660254037844384 6.0
    vertex 75.0 -8.660254037844389 6.0
    vertex 77.07106781186546 -7.071067811865479 6.0
  endloop
endfacet
facet normal 3.820299849935453e-33 -4.7763988166006575e-32 1.0
  outer loop
    vertex 75.0 8.660254037844384 6.0
    vertex 77.07106781186546 -7.071067811865479 6.0
    vertex 77.07106781186548 7.071067811865473 6.0
  endloop
endfacet
facet normal 3.820299849935453e-33 -4.7763988166006575e-32 1.0
  outer loop
    vertex 77.07106781186548 7.071067811865473 6.0
    vertex 77.07106781186546 -7.071067811865479 6.0
    vertex 78.66025403784438 -5.000000000000004 6.0
  endloop
endfacet
facet normal 3.820299849935453e-33 -4.7763988166006575e-32 1.0
  outer loop
    vertex 77.07106781186548 7.071067811865473 6.0
    vertex 78.66025403784438 -5.000000000000004 6.0
    vertex 78.66025403784438 4.999999999999994 6.0
  endloop
endfacet
facet normal 3.820299849935453e-33 -4.7763988166006575e-32 1.0
  outer loop
    vertex 78.66025403784438 4.999999999999994 6.0
    vertex 78.66025403784438 -5.000000000000004 6.0
    vertex 79.65925826289069 -2.5881904510252154 6.0
  endloop
endfacet
facet normal 3.820299849935453e-33 -4.7763988166006575e-32 1.0
  outer loop
    vertex 78.66025403784438 4.999999999999994 6.0
    vertex 79.65925826289069 -2.5881904510252154 6.0
    vertex 79.65925826289069 2.588190451025203 6.0
  endloop
endfacet
facet normal 3.820299849935453e-33 -4.7763988166006575e-32 1.0
  outer loop
    vertex 79.65925826289069 2.588190451025203 6.0
    vertex 79.65925826289069 -2.5881904510252154 6.0
    vertex 80.0 -1.8369701987210296e-15 6.0
  endloop
endfacet
facet normal 0.13052619222005135 -0.9914448613738106 0.0
  outer loop
    vertex 72.5881904510252 -9.659258262890685 6.0
    vertex 70.0 -10.0 0.0
    vertex 72.5881904510252 -9.659258262890685 0.0
  endloop
endfacet
facet normal 0.13052619222005135 -0.9914448613738106 0.0
  outer loop
    vertex 70.0 -10.0 0.0
    vertex 72.5881904510252 -9.659258262890685 6.0
    vertex 70.0 -10.0 6.0
  endloop
endfacet
facet normal -0.0 -1.0 -0.0
  outer loop
    vertex 70.0 -10.0 6.0
    vertex 0.0 -10.0 0.0
    vertex 70.0 -10.0 0.0
  endloop
endfacet
facet normal -0.0 -1.0 -0.0
  outer loop
    vertex 0.0 -10.0 0.0
    vertex 70.0 -10.0 6.0
    vertex 0.0 -10.0 6.0
  endloop
endfacet
facet normal -0.13052619222005188 -0.9914448613738105 -0.0
  outer loop
    vertex 0.0 -10.0 6.0
    vertex -2.588190451025216 -9.659258262890681 0.0
    vertex 0.0 -10.0 0.0
  endloop
endfacet
facet normal -0.13052619222005188 -0.9914448613738105 -0.0
  outer loop
    vertex -2.588190451025216 -9.659258262890681 0.0
    vertex 0.0 -10.0 6.0
    vertex -2.588190451025216 -9.659258262890681 6.0
  endloop
endfacet
facet normal -0.3826834323650908 -0.9238795325112864 -0.0
  outer loop
    vertex -2.588190451025216 -9.659258262890681 6.0
    vertex -5.000000000000004 -8.660254037844384 0.0
    vertex -2.588190451025216 -9.659258262890681 0.0
  endloop
endfacet
facet normal -0.3826834323650908 -0.9238795325112864 -0.0
  outer loop
    vertex -5.000000000000004 -8.660254037844384 0.0
    vertex -2.588190451025216 -9.659258262890681 6.0
    vertex -5.000000000000004 -8.660254037844384 6.0
  endloop
endfacet
facet normal -0.6087614290087208 -0.7933533402912352 -0.0
  outer loop
    vertex -5.000000000000004 -8.660254037844384 6.0
    vertex -7.071067811865477 -7.071067811865473 0.0
    vertex -5.000000000000004 -8.660254037844384 0.0
  endloop
endfacet
facet normal -0.6087614290087208 -0.7933533402912352 -0.0
  outer loop
    vertex -7.071067811865477 -7.071067811865473 0.0
    vertex -5.000000000000004 -8.660254037844384 6.0
    vertex -7.071067811865477 -7.071067811865473 6.0
  endloop
endfacet
facet normal -0.7933533402912355 -0.6087614290087203 -0.0
  outer loop
    vertex -8.66025403784439 -4.999999999999994 6.0
    vertex -7.071067811865477 -7.071067811865473 0.0
    vertex -7.071067811865477 -7.071067811865473 6.0
  endloop
endfacet
facet normal -0.7933533402912355 -0.6087614290087203 -0.0
  outer loop
    vertex -7.071067811865477 -7.071067811865473 0.0
    vertex -8.66025403784439 -4.999999999999994 6.0
    vertex -8.66025403784439 -4.999999999999994 0.0
  endloop
endfacet
facet normal -0.9238795325112872 -0.38268343236508917 -0.0
  outer loop
    vertex -9.659258262890685 -2.588190451025203 6.0
    vertex -8.66025403784439 -4.999999999999994 0.0
    vertex -8.66025403784439 -4.999999999999994 6.0
  endloop
endfacet
facet normal -0.9238795325112872 -0.38268343236508917 -0.0
  outer loop
    vertex -8.66025403784439 -4.999999999999994 0.0
    vertex -9.659258262890685 -2.588190451025203 6.0
    vertex -9.659258262890685 -2.588190451025203 0.0
  endloop
endfacet
facet normal -0.9914448613738105 -0.13052619222005135 -0.0
  outer loop
    vertex -10.0 1.8369701987210296e-15 6.0
    vertex -9.659258262890685 -2.588190451025203 0.0
    vertex -9.659258262890685 -2.588190451025203 6.0
  endloop
endfacet
facet normal -0.9914448613738105 -0.13052619222005135 -0.0
  outer loop
    vertex -9.659258262890685 -2.588190451025203 0.0
    vertex -10.0 1.8369701987210296e-15 6.0
    vertex -10.0 1.8369701987210296e-15 0.0
  endloop
endfacet
facet normal -0.9914448613738104 0.130526192220052 0.0
  outer loop
    vertex -9.659258262890681 2.5881904510252154 6.0
    vertex -10.0 1.8369701987210296e-15 0.0
    vertex -10.0 1.8369701987210296e-15 6.0
  endloop
endfacet
facet normal -0.9914448613738104 0.130526192220052 0.0
  outer loop
    vertex -10.0 1.8369701987210296e-15 0.0
    vertex -9.659258262890681 2.5881904510252154 6.0
    vertex -9.659258262890681 2.5881904510252154 0.0
  endloop
endfacet
facet normal -0.9238795325112865 0.38268343236509084 0.0
  outer loop
    vertex -8.660254037844384 5.000000000000004 6.0
    vertex -9.659258262890681 2.5881904510252154 0.0
    vertex -9.659258262890681 2.5881904510252154 6.0
  endloop
endfacet
facet normal -0.9238795325112865 0.38268343236509084 0.0
  outer loop
    vertex -9.659258262890681 2.5881904510252154 0.0
    vertex -8.660254037844384 5.000000000000004 6.0
    vertex -8.660254037844384 5.000000000000004 0.0
  endloop
endfacet
facet normal -0.7933533402912352 0.6087614290087209 0.0
  outer loop
    vertex -7.071067811865472 7.071067811865479 6.0
    vertex -8.660254037844384 5.000000000000004 0.0
    vertex -8.660254037844384 5.000000000000004 6.0
  endloop
endfacet
facet normal -0.7933533402912352 0.6087614290087209 0.0
  outer loop
    vertex -8.660254037844384 5.000000000000004 0.0
    vertex -7.071067811865472 7.071067811865479 6.0
    vertex -7.071067811865472 7.071067811865479 0.0
  endloop
endfacet
facet normal -0.6087614290087204 0.7933533402912353 0.0
  outer loop
    vertex -7.071067811865472 7.071067811865479 6.0
    vertex -4.999999999999997 8.660254037844389 0.0
    vertex -7.071067811865472 7.071067811865479 0.0
  endloop
endfacet
facet normal -0.6087614290087204 0.7933533402912353 0.0
  outer loop
    vertex -4.999999999999997 8.660254037844389 0.0
    vertex -7.071067811865472 7.071067811865479 6.0
    vertex -4.999999999999997 8.660254037844389 6.0
  endloop
endfacet
facet normal -0.3826834323650891 0.9238795325112871 0.0
  outer loop
    vertex -4.999999999999997 8.660254037844389 6.0
    vertex -2.5881904510252034 9.659258262890685 0.0
    vertex -4.999999999999997 8.660254037844389 0.0
  endloop
endfacet
facet normal -0.3826834323650891 0.9238795325112871 0.0
  outer loop
    vertex -2.5881904510252034 9.659258262890685 0.0
    vertex -4.999999999999997 8.660254037844389 6.0
    vertex -2.5881904510252034 9.659258262890685 6.0
  endloop
endfacet
facet normal -0.13052619222005138 0.9914448613738105 0.0
  outer loop
    vertex -2.5881904510252034 9.659258262890685 6.0
    vertex 1.2246467991473533e-15 10.0 0.0
    vertex -2.5881904510252034 9.659258262890685 0.0
  endloop
endfacet
facet normal -0.13052619222005138 0.9914448613738105 0.0
  outer loop
    vertex 1.2246467991473533e-15 10.0 0.0
    vertex -2.5881904510252034 9.659258262890685 6.0
    vertex 1.2246467991473533e-15 10.0 6.0
  endloop
endfacet
facet normal -0.0 1.0 0.0
  outer loop
    vertex 1.2246467991473533e-15 10.0 6.0
    vertex 70.0 10.0 0.0
    vertex 1.2246467991473533e-15 10.0 0.0
  endloop
endfacet
facet normal -0.0 1.0 0.0
  outer loop
    vertex 70.0 10.0 0.0
    vertex 1.2246467991473533e-15 10.0 6.0
    vertex 70.0 10.0 6.0
  endloop
endfacet
facet normal 0.13052619222005185 0.9914448613738104 0.0
  outer loop
    vertex 70.0 10.0 6.0
    vertex 72.58819045102521 9.659258262890681 0.0
    vertex 70.0 10.0 0.0
  endloop
endfacet
facet normal 0.13052619222005185 0.9914448613738104 0.0
  outer loop
    vertex 72.58819045102521 9.659258262890681 0.0
    vertex 70.0 10.0 6.0
    vertex 72.58819045102521 9.659258262890681 6.0
  endloop
endfacet
facet normal 0.38268343236509117 0.9238795325112863 0.0
  outer loop
    vertex 72.58819045102521 9.659258262890681 6.0
    vertex 75.0 8.660254037844384 0.0
    vertex 72.58819045102521 9.659258262890681 0.0
  endloop
endfacet
facet normal 0.38268343236509117 0.9238795325112863 0.0
  outer loop
    vertex 75.0 8.660254037844384 0.0
    vertex 72.58819045102521 9.659258262890681 6.0
    vertex 75.0 8.660254037844384 6.0
  endloop
endfacet
facet normal 0.6087614290087197 0.7933533402912362 0.0
  outer loop
    vertex 75.0 8.660254037844384 6.0
    vertex 77.07106781186548 7.071067811865473 0.0
    vertex 75.0 8.660254037844384 0.0
  endloop
endfacet
facet normal 0.6087614290087197 0.7933533402912362 0.0
  outer loop
    vertex 77.07106781186548 7.071067811865473 0.0
    vertex 75.0 8.660254037844384 6.0
    vertex 77.07106781186548 7.071067811865473 6.0
  endloop
endfacet
facet normal 0.7933533402912362 0.6087614290087197 0.0
  outer loop
    vertex 77.07106781186548 7.071067811865473 0.0
    vertex 78.66025403784438 4.999999999999994 6.0
    vertex 78.66025403784438 4.999999999999994 0.0
  endloop
endfacet
facet normal 0.7933533402912362 0.6087614290087197 0.0
  outer loop
    vertex 78.66025403784438 4.999999999999994 6.0
    vertex 77.07106781186548 7.071067811865473 0.0
    vertex 77.07106781186548 7.071067811865473 6.0
  endloop
endfacet
facet normal 0.9238795325112868 0.38268343236508956 0.0
  outer loop
    vertex 78.66025403784438 4.999999999999994 0.0
    vertex 79.65925826289069 2.588190451025203 6.0
    vertex 79.65925826289069 2.588190451025203 0.0
  endloop
endfacet
facet normal 0.9238795325112868 0.38268343236508956 0.0
  outer loop
    vertex 79.65925826289069 2.588190451025203 6.0
    vertex 78.66025403784438 4.999999999999994 0.0
    vertex 78.66025403784438 4.999999999999994 6.0
  endloop
endfacet
facet normal 0.9914448613738105 0.1305261922200519 0.0
  outer loop
    vertex 79.65925826289069 2.588190451025203 0.0
    vertex 80.0 -1.8369701987210296e-15 6.0
    vertex 80.0 -1.8369701987210296e-15 0.0
  endloop
endfacet
facet normal 0.9914448613738105 0.1305261922200519 0.0
  outer loop
    vertex 80.0 -1.8369701987210296e-15 6.0
    vertex 79.65925826289069 2.588190451025203 0.0
    vertex 79.65925826289069 2.588190451025203 6.0
  endloop
endfacet
facet normal 0.9914448613738106 -0.13052619222005146 0.0
  outer loop
    vertex 80.0 -1.8369701987210296e-15 0.0
    vertex 79.65925826289069 -2.5881904510252154 6.0
    vertex 79.65925826289069 -2.5881904510252154 0.0
  endloop
endfacet
facet normal 0.9914448613738106 -0.13052619222005146 0.0
  outer loop
    vertex 79.65925826289069 -2.5881904510252154 6.0
    vertex 80.0 -1.8369701987210296e-15 0.0
    vertex 80.0 -1.8369701987210296e-15 6.0
  endloop
endfacet
facet normal 0.9238795325112853 -0.3826834323650935 0.0
  outer loop
    vertex 79.65925826289069 -2.5881904510252154 0.0
    vertex 78.66025403784438 -5.000000000000004 6.0
    vertex 78.66025403784438 -5.000000000000004 0.0
  endloop
endfacet
facet normal 0.9238795325112853 -0.3826834323650935 0.0
  outer loop
    vertex 78.66025403784438 -5.000000000000004 6.0
    vertex 79.65925826289069 -2.5881904510252154 0.0
    vertex 79.65925826289069 -2.5881904510252154 6.0
  endloop
endfacet
facet normal 0.7933533402912353 -0.6087614290087204 0.0
  outer loop
    vertex 78.66025403784438 -5.000000000000004 0.0
    vertex 77.07106781186546 -7.071067811865479 6.0
    vertex 77.07106781186546 -7.071067811865479 0.0
  endloop
endfacet
facet normal 0.7933533402912353 -0.6087614290087204 0.0
  outer loop
    vertex 77.07106781186546 -7.071067811865479 6.0
    vertex 78.66025403784438 -5.000000000000004 0.0
    vertex 78.66025403784438 -5.000000000000004 6.0
  endloop
endfacet
facet normal 0.6087614290087217 -0.7933533402912344 0.0
  outer loop
    vertex 77.07106781186546 -7.071067811865479 6.0
    vertex 75.0 -8.660254037844389 0.0
    vertex 77.07106781186546 -7.071067811865479 0.0
  endloop
endfacet
facet normal 0.6087614290087217 -0.7933533402912344 0.0
  outer loop
    vertex 75.0 -8.660254037844389 0.0
    vertex 77.07106781186546 -7.071067811865479 6.0
    vertex 75.0 -8.660254037844389 6.0
  endloop
endfacet
facet normal 0.3826834323650887 -0.9238795325112873 0.0
  outer loop
    vertex 75.0 -8.660254037844389 6.0
    vertex 72.5881904510252 -9.659258262890685 0.0
    vertex 75.0 -8.660254037844389 0.0
  endloop
endfacet
facet normal 0.3826834323650887 -0.9238795325112873 0.0
  outer loop
    vertex 72.5881904510252 -9.659258262890685 0.0
    vertex 75.0 -8.660254037844389 6.0
    vertex 72.5881904510252 -9.659258262890685 6.0
  endloop
endfacet
facet normal -0.8660254037844385 0.5000000000000004 3.0361551714394384e-17
  outer loop
    vertex 4.5 0.0 6.0
    vertex 2.249999999999997 -3.8971143170299753 1.5
    vertex 2.249999999999997 -3.8971143170299753 6.0
  endloop
endfacet
facet normal -0.8660254037844385 0.5000000000000004 3.0361551714394384e-17
  outer loop
    vertex 2.249999999999997 -3.8971143170299753 1.5
    vertex 4.5 0.0 6.0
    vertex 4.5 0.0 1.5
  endloop
endfacet
facet normal -0.8660254037844387 -0.4999999999999999 -1.2426067775913664e-17
  outer loop
    vertex 2.2500000000000004 3.897114317029974 6.0
    vertex 4.5 0.0 1.5
    vertex 4.5 0.0 6.0
  endloop
endfacet
facet normal -0.8660254037844387 -0.4999999999999999 -1.2426067775913664e-17
  outer loop
    vertex 4.5 0.0 1.5
    vertex 2.2500000000000004 3.897114317029974 6.0
    vertex 2.2500000000000004 3.897114317029974 1.5
  endloop
endfacet
facet normal 0.0 -1.0 0.0
  outer loop
    vertex 2.2500000000000004 3.897114317029974 6.0
    vertex -2.249999999999999 3.897114317029974 1.5
    vertex 2.2500000000000004 3.897114317029974 1.5
  endloop
endfacet
facet normal 0.0 -1.0 0.0
  outer loop
    vertex -2.249999999999999 3.897114317029974 1.5
    vertex 2.2500000000000004 3.897114317029974 6.0
    vertex -2.249999999999999 3.897114317029974 6.0
  endloop
endfacet
facet normal 0.8660254037844385 -0.5000000000000003 -1.2906647619631397e-17
  outer loop
    vertex -2.249999999999999 3.897114317029974 1.5
    vertex -4.5 5.51091059616309e-16 6.0
    vertex -4.5 5.51091059616309e-16 1.5
  endloop
endfacet
facet normal 0.8660254037844385 -0.5000000000000003 -1.2906647619631397e-17
  outer loop
    vertex -4.5 5.51091059616309e-16 6.0
    vertex -2.249999999999999 3.897114317029974 1.5
    vertex -2.249999999999999 3.897114317029974 6.0
  endloop
endfacet
facet normal 0.8660254037844388 0.4999999999999997 -1.242606777591367e-17
  outer loop
    vertex -4.5 5.51091059616309e-16 1.5
    vertex -2.250000000000002 -3.8971143170299727 6.0
    vertex -2.250000000000002 -3.8971143170299727 1.5
  endloop
endfacet
facet normal 0.8660254037844388 0.4999999999999997 -1.242606777591367e-17
  outer loop
    vertex -2.250000000000002 -3.8971143170299727 6.0
    vertex -4.5 5.51091059616309e-16 1.5
    vertex -4.5 5.51091059616309e-16 6.0
  endloop
endfacet
facet normal 6.266592183439774e-16 1.0 4.495774538203716e-33
  outer loop
    vertex -2.250000000000002 -3.8971143170299727 6.0
    vertex 2.249999999999997 -3.8971143170299753 1.5
    vertex -2.250000000000002 -3.8971143170299727 1.5
  endloop
endfacet
facet normal 6.266592183439774e-16 1.0 4.495774538203716e-33
  outer loop
    vertex 2.249999999999997 -3.8971143170299753 1.5
    vertex -2.250000000000002 -3.8971143170299727 6.0
    vertex 2.249999999999997 -3.8971143170299753 6.0
  endloop
endfacet
facet normal -0.0 -0.0 1.0
  outer loop
    vertex -2.250000000000002 -3.8971143170299727 1.5
    vertex -2.5999999999999996 0.0 1.5
    vertex -4.5 5.51091059616309e-16 1.5
  endloop
endfacet
facet normal -0.0 -0.0 1.0
  outer loop
    vertex -2.5999999999999996 0.0 1.5
    vertex -2.250000000000002 -3.8971143170299727 1.5
    vertex -2.5114071483515774 -0.6729295172665539 1.5
  endloop
endfacet
facet normal -0.0 -0.0 1.0
  outer loop
    vertex -2.5114071483515774 -0.6729295172665539 1.5
    vertex -2.250000000000002 -3.8971143170299727 1.5
    vertex -2.25166604983954 -1.2999999999999998 1.5
  endloop
endfacet
facet normal -0.0 -0.0 1.0
  outer loop
    vertex -2.25166604983954 -1.2999999999999998 1.5
    vertex -2.250000000000002 -3.8971143170299727 1.5
    vertex -1.8384776310850237 -1.8384776310850233 1.5
  endloop
endfacet
facet normal -0.0 -0.0 1.0
  outer loop
    vertex -1.8384776310850237 -1.8384776310850233 1.5
    vertex -2.250000000000002 -3.8971143170299727 1.5
    vertex -1.3000000000000003 -2.25166604983954 1.5
  endloop
endfacet
facet normal -0.0 -0.0 1.0
  outer loop
    vertex -1.3000000000000003 -2.25166604983954 1.5
    vertex -2.250000000000002 -3.8971143170299727 1.5
    vertex 2.249999999999997 -3.8971143170299753 1.5
  endloop
endfacet
facet normal -0.0 -0.0 1.0
  outer loop
    vertex -1.3000000000000003 -2.25166604983954 1.5
    vertex 2.249999999999997 -3.8971143170299753 1.5
    vertex -0.6729295172665544 -2.511407148351577 1.5
  endloop
endfacet
facet normal -0.0 -0.0 1.0
  outer loop
    vertex -0.6729295172665544 -2.511407148351577 1.5
    vertex 2.249999999999997 -3.8971143170299753 1.5
    vertex -1.592040838891559e-16 -2.5999999999999996 1.5
  endloop
endfacet
facet normal -0.0 -0.0 1.0
  outer loop
    vertex -1.592040838891559e-16 -2.5999999999999996 1.5
    vertex 2.249999999999997 -3.8971143170299753 1.5
    vertex 0.6729295172665536 -2.5114071483515774 1.5
  endloop
endfacet
facet normal -0.0 -0.0 1.0
  outer loop
    vertex 0.6729295172665536 -2.5114071483515774 1.5
    vertex 2.249999999999997 -3.8971143170299753 1.5
    vertex 1.2999999999999994 -2.25166604983954 1.5
  endloop
endfacet
facet normal -0.0 -0.0 1.0
  outer loop
    vertex 1.2999999999999994 -2.25166604983954 1.5
    vertex 2.249999999999997 -3.8971143170299753 1.5
    vertex 1.8384776310850233 -1.8384776310850237 1.5
  endloop
endfacet
facet normal -0.0 -0.0 1.0
  outer loop
    vertex 1.8384776310850233 -1.8384776310850237 1.5
    vertex 2.249999999999997 -3.8971143170299753 1.5
    vertex 2.25166604983954 -1.3000000000000007 1.5
  endloop
endfacet
facet normal -0.0 -0.0 1.0
  outer loop
    vertex 2.25166604983954 -1.3000000000000007 1.5
    vertex 2.249999999999997 -3.8971143170299753 1.5
    vertex 4.5 0.0 1.5
  endloop
endfacet
facet normal -0.0 -0.0 1.0
  outer loop
    vertex 2.25166604983954 -1.3000000000000007 1.5
    vertex 4.5 0.0 1.5
    vertex 2.511407148351577 -0.6729295172665546 1.5
  endloop
endfacet
facet normal -0.0 -0.0 1.0
  outer loop
    vertex 2.511407148351577 -0.6729295172665546 1.5
    vertex 4.5 0.0 1.5
    vertex 2.5999999999999996 -3.184081677783118e-16 1.5
  endloop
endfacet
facet normal -0.0 -0.0 1.0
  outer loop
    vertex -2.5999999999999996 0.0 1.5
    vertex -2.249999999999999 3.897114317029974 1.5
    vertex -4.5 5.51091059616309e-16 1.5
  endloop
endfacet
facet normal -0.0 -0.0 1.0
  outer loop
    vertex -2.249999999999999 3.897114317029974 1.5
    vertex -2.5999999999999996 0.0 1.5
    vertex -2.511407148351577 0.672929517266556 1.5
  endloop
endfacet
facet normal -0.0 -0.0 1.0
  outer loop
    vertex -2.249999999999999 3.897114317029974 1.5
    vertex -2.511407148351577 0.672929517266556 1.5
    vertex -2.2516660498395398 1.3000000000000012 1.5
  endloop
endfacet
facet normal -0.0 -0.0 1.0
  outer loop
    vertex -2.249999999999999 3.897114317029974 1.5
    vertex -2.2516660498395398 1.3000000000000012 1.5
    vertex -1.838477631085023 1.8384776310850237 1.5
  endloop
endfacet
facet normal -0.0 -0.0 1.0
  outer loop
    vertex -2.249999999999999 3.897114317029974 1.5
    vertex -1.838477631085023 1.8384776310850237 1.5
    vertex -1.299999999999998 2.2516660498395416 1.5
  endloop
endfacet
facet normal -0.0 -0.0 1.0
  outer loop
    vertex -2.249999999999999 3.897114317029974 1.5
    vertex -1.299999999999998 2.2516660498395416 1.5
    vertex 2.2500000000000004 3.897114317029974 1.5
  endloop
endfacet
facet normal -0.0 -0.0 1.0
  outer loop
    vertex 2.2500000000000004 3.897114317029974 1.5
    vertex -1.299999999999998 2.2516660498395416 1.5
    vertex -0.6729295172665527 2.511407148351578 1.5
  endloop
endfacet
facet normal -0.0 -0.0 1.0
  outer loop
    vertex 2.2500000000000004 3.897114317029974 1.5
    vertex -0.6729295172665527 2.511407148351578 1.5
    vertex 4.776122516674677e-16 2.5999999999999996 1.5
  endloop
endfacet
facet normal -0.0 -0.0 1.0
  outer loop
    vertex 2.2500000000000004 3.897114317029974 1.5
    vertex 4.776122516674677e-16 2.5999999999999996 1.5
    vertex 0.6729295172665559 2.511407148351577 1.5
  endloop
endfacet
facet normal -0.0 -0.0 1.0
  outer loop
    vertex 2.2500000000000004 3.897114317029974 1.5
    vertex 0.6729295172665559 2.511407148351577 1.5
    vertex 1.3000000000000012 2.2516660498395398 1.5
  endloop
endfacet
facet normal -0.0 -0.0 1.0
  outer loop
    vertex 2.2500000000000004 3.897114317029974 1.5
    vertex 1.3000000000000012 2.2516660498395398 1.5
    vertex 1.8384776310850244 1.8384776310850224 1.5
  endloop
endfacet
facet normal -0.0 -0.0 1.0
  outer loop
    vertex 2.2500000000000004 3.897114317029974 1.5
    vertex 1.8384776310850244 1.8384776310850224 1.5
    vertex 2.2516660498395407 1.2999999999999992 1.5
  endloop
endfacet
facet normal -0.0 -0.0 1.0
  outer loop
    vertex 2.2500000000000004 3.897114317029974 1.5
    vertex 2.2516660498395407 1.2999999999999992 1.5
    vertex 4.5 0.0 1.5
  endloop
endfacet
facet normal -0.0 -0.0 1.0
  outer loop
    vertex 4.5 0.0 1.5
    vertex 2.2516660498395407 1.2999999999999992 1.5
    vertex 2.511407148351578 0.6729295172665528 1.5
  endloop
endfacet
facet normal -0.0 -0.0 1.0
  outer loop
    vertex 4.5 0.0 1.5
    vertex 2.511407148351578 0.6729295172665528 1.5
    vertex 2.5999999999999996 -3.184081677783118e-16 1.5
  endloop
endfacet
facet normal 0.6087614290087208 0.793353340291235 0.0
  outer loop
    vertex -1.8384776310850237 -1.8384776310850233 1.5
    vertex -1.3000000000000003 -2.25166604983954 0.0
    vertex -1.8384776310850237 -1.8384776310850233 0.0
  endloop
endfacet
facet normal 0.6087614290087208 0.793353340291235 0.0
  outer loop
    vertex -1.3000000000000003 -2.25166604983954 0.0
    vertex -1.8384776310850237 -1.8384776310850233 1.5
    vertex -1.3000000000000003 -2.25166604983954 1.5
  endloop
endfacet
facet normal 0.38268343236508934 0.9238795325112871 0.0
  outer loop
    vertex -1.3000000000000003 -2.25166604983954 1.5
    vertex -0.6729295172665544 -2.511407148351577 0.0
    vertex -1.3000000000000003 -2.25166604983954 0.0
  endloop
endfacet
facet normal 0.38268343236508934 0.9238795325112871 0.0
  outer loop
    vertex -0.6729295172665544 -2.511407148351577 0.0
    vertex -1.3000000000000003 -2.25166604983954 1.5
    vertex -0.6729295172665544 -2.511407148351577 1.5
  endloop
endfacet
facet normal 0.1305261922200521 0.9914448613738105 0.0
  outer loop
    vertex -0.6729295172665544 -2.511407148351577 1.5
    vertex -1.592040838891559e-16 -2.5999999999999996 0.0
    vertex -0.6729295172665544 -2.511407148351577 0.0
  endloop
endfacet
facet normal 0.1305261922200521 0.9914448613738105 0.0
  outer loop
    vertex -1.592040838891559e-16 -2.5999999999999996 0.0
    vertex -0.6729295172665544 -2.511407148351577 1.5
    vertex -1.592040838891559e-16 -2.5999999999999996 1.5
  endloop
endfacet
facet normal -0.13052619222005166 0.9914448613738104 0.0
  outer loop
    vertex -1.592040838891559e-16 -2.5999999999999996 1.5
    vertex 0.6729295172665536 -2.5114071483515774 0.0
    vertex -1.592040838891559e-16 -2.5999999999999996 0.0
  endloop
endfacet
facet normal -0.13052619222005166 0.9914448613738104 0.0
  outer loop
    vertex 0.6729295172665536 -2.5114071483515774 0.0
    vertex -1.592040838891559e-16 -2.5999999999999996 1.5
    vertex 0.6729295172665536 -2.5114071483515774 1.5
  endloop
endfacet
facet normal -0.3826834323650898 0.9238795325112867 0.0
  outer loop
    vertex 0.6729295172665536 -2.5114071483515774 1.5
    vertex 1.2999999999999994 -2.25166604983954 0.0
    vertex 0.6729295172665536 -2.5114071483515774 0.0
  endloop
endfacet
facet normal -0.3826834323650898 0.9238795325112867 0.0
  outer loop
    vertex 1.2999999999999994 -2.25166604983954 0.0
    vertex 0.6729295172665536 -2.5114071483515774 1.5
    vertex 1.2999999999999994 -2.25166604983954 1.5
  endloop
endfacet
facet normal -0.6087614290087201 0.7933533402912357 0.0
  outer loop
    vertex 1.2999999999999994 -2.25166604983954 1.5
    vertex 1.8384776310850233 -1.8384776310850237 0.0
    vertex 1.2999999999999994 -2.25166604983954 0.0
  endloop
endfacet
facet normal -0.6087614290087201 0.7933533402912357 0.0
  outer loop
    vertex 1.8384776310850233 -1.8384776310850237 0.0
    vertex 1.2999999999999994 -2.25166604983954 1.5
    vertex 1.8384776310850233 -1.8384776310850237 1.5
  endloop
endfacet
facet normal -0.7933533402912349 0.6087614290087209 0.0
  outer loop
    vertex 2.25166604983954 -1.3000000000000007 1.5
    vertex 1.8384776310850233 -1.8384776310850237 0.0
    vertex 1.8384776310850233 -1.8384776310850237 1.5
  endloop
endfacet
facet normal -0.7933533402912349 0.6087614290087209 0.0
  outer loop
    vertex 1.8384776310850233 -1.8384776310850237 0.0
    vertex 2.25166604983954 -1.3000000000000007 1.5
    vertex 2.25166604983954 -1.3000000000000007 0.0
  endloop
endfacet
facet normal -0.923879532511287 0.3826834323650896 0.0
  outer loop
    vertex 2.511407148351577 -0.6729295172665546 1.5
    vertex 2.25166604983954 -1.3000000000000007 0.0
    vertex 2.25166604983954 -1.3000000000000007 1.5
  endloop
endfacet
facet normal -0.923879532511287 0.3826834323650896 0.0
  outer loop
    vertex 2.25166604983954 -1.3000000000000007 0.0
    vertex 2.511407148351577 -0.6729295172665546 1.5
    vertex 2.511407148351577 -0.6729295172665546 0.0
  endloop
endfacet
facet normal -0.9914448613738105 0.1305261922200521 0.0
  outer loop
    vertex 2.5999999999999996 -3.184081677783118e-16 1.5
    vertex 2.511407148351577 -0.6729295172665546 0.0
    vertex 2.511407148351577 -0.6729295172665546 1.5
  endloop
endfacet
facet normal -0.9914448613738105 0.1305261922200521 0.0
  outer loop
    vertex 2.511407148351577 -0.6729295172665546 0.0
    vertex 2.5999999999999996 -3.184081677783118e-16 1.5
    vertex 2.5999999999999996 -3.184081677783118e-16 0.0
  endloop
endfacet
facet normal -0.9914448613738106 -0.1305261922200513 -0.0
  outer loop
    vertex 2.511407148351578 0.6729295172665528 1.5
    vertex 2.5999999999999996 -3.184081677783118e-16 0.0
    vertex 2.5999999999999996 -3.184081677783118e-16 1.5
  endloop
endfacet
facet normal -0.9914448613738106 -0.1305261922200513 -0.0
  outer loop
    vertex 2.5999999999999996 -3.184081677783118e-16 0.0
    vertex 2.511407148351578 0.6729295172665528 1.5
    vertex 2.511407148351578 0.6729295172665528 0.0
  endloop
endfacet
facet normal -0.923879532511287 -0.3826834323650895 -0.0
  outer loop
    vertex 2.2516660498395407 1.2999999999999992 1.5
    vertex 2.511407148351578 0.6729295172665528 0.0
    vertex 2.511407148351578 0.6729295172665528 1.5
  endloop
endfacet
facet normal -0.923879532511287 -0.3826834323650895 -0.0
  outer loop
    vertex 2.511407148351578 0.6729295172665528 0.0
    vertex 2.2516660498395407 1.2999999999999992 1.5
    vertex 2.2516660498395407 1.2999999999999992 0.0
  endloop
endfacet
facet normal -0.7933533402912355 -0.6087614290087204 -0.0
  outer loop
    vertex 1.8384776310850244 1.8384776310850224 1.5
    vertex 2.2516660498395407 1.2999999999999992 0.0
    vertex 2.2516660498395407 1.2999999999999992 1.5
  endloop
endfacet
facet normal -0.7933533402912355 -0.6087614290087204 -0.0
  outer loop
    vertex 2.2516660498395407 1.2999999999999992 0.0
    vertex 1.8384776310850244 1.8384776310850224 1.5
    vertex 1.8384776310850244 1.8384776310850224 0.0
  endloop
endfacet
facet normal -0.6087614290087213 -0.7933533402912347 -0.0
  outer loop
    vertex 1.8384776310850244 1.8384776310850224 1.5
    vertex 1.3000000000000012 2.2516660498395398 0.0
    vertex 1.8384776310850244 1.8384776310850224 0.0
  endloop
endfacet
facet normal -0.6087614290087213 -0.7933533402912347 -0.0
  outer loop
    vertex 1.3000000000000012 2.2516660498395398 0.0
    vertex 1.8384776310850244 1.8384776310850224 1.5
    vertex 1.3000000000000012 2.2516660498395398 1.5
  endloop
endfacet
facet normal -0.3826834323650905 -0.9238795325112865 -0.0
  outer loop
    vertex 1.3000000000000012 2.2516660498395398 1.5
    vertex 0.6729295172665559 2.511407148351577 0.0
    vertex 1.3000000000000012 2.2516660498395398 0.0
  endloop
endfacet
facet normal -0.3826834323650905 -0.9238795325112865 -0.0
  outer loop
    vertex 0.6729295172665559 2.511407148351577 0.0
    vertex 1.3000000000000012 2.2516660498395398 1.5
    vertex 0.6729295172665559 2.511407148351577 1.5
  endloop
endfacet
facet normal -0.13052619222005185 -0.9914448613738104 -0.0
  outer loop
    vertex 0.6729295172665559 2.511407148351577 1.5
    vertex 4.776122516674677e-16 2.5999999999999996 0.0
    vertex 0.6729295172665559 2.511407148351577 0.0
  endloop
endfacet
facet normal -0.13052619222005185 -0.9914448613738104 -0.0
  outer loop
    vertex 4.776122516674677e-16 2.5999999999999996 0.0
    vertex 0.6729295172665559 2.511407148351577 1.5
    vertex 4.776122516674677e-16 2.5999999999999996 1.5
  endloop
endfacet
facet normal 0.1305261922200513 -0.9914448613738106 0.0
  outer loop
    vertex 4.776122516674677e-16 2.5999999999999996 1.5
    vertex -0.6729295172665527 2.511407148351578 0.0
    vertex 4.776122516674677e-16 2.5999999999999996 0.0
  endloop
endfacet
facet normal 0.1305261922200513 -0.9914448613738106 0.0
  outer loop
    vertex -0.6729295172665527 2.511407148351578 0.0
    vertex 4.776122516674677e-16 2.5999999999999996 1.5
    vertex -0.6729295172665527 2.511407148351578 1.5
  endloop
endfacet
facet normal 0.3826834323650891 -0.9238795325112871 0.0
  outer loop
    vertex -0.6729295172665527 2.511407148351578 1.5
    vertex -1.299999999999998 2.2516660498395416 0.0
    vertex -0.6729295172665527 2.511407148351578 0.0
  endloop
endfacet
facet normal 0.3826834323650891 -0.9238795325112871 0.0
  outer loop
    vertex -1.299999999999998 2.2516660498395416 0.0
    vertex -0.6729295172665527 2.511407148351578 1.5
    vertex -1.299999999999998 2.2516660498395416 1.5
  endloop
endfacet
facet normal 0.6087614290087204 -0.7933533402912353 0.0
  outer loop
    vertex -1.299999999999998 2.2516660498395416 1.5
    vertex -1.838477631085023 1.8384776310850237 0.0
    vertex -1.299999999999998 2.2516660498395416 0.0
  endloop
endfacet
facet normal 0.6087614290087204 -0.7933533402912353 0.0
  outer loop
    vertex -1.838477631085023 1.8384776310850237 0.0
    vertex -1.299999999999998 2.2516660498395416 1.5
    vertex -1.838477631085023 1.8384776310850237 1.5
  endloop
endfacet
facet normal 0.7933533402912349 -0.6087614290087212 0.0
  outer loop
    vertex -1.838477631085023 1.8384776310850237 0.0
    vertex -2.2516660498395398 1.3000000000000012 1.5
    vertex -2.2516660498395398 1.3000000000000012 0.0
  endloop
endfacet
facet normal 0.7933533402912349 -0.6087614290087212 0.0
  outer loop
    vertex -2.2516660498395398 1.3000000000000012 1.5
    vertex -1.838477631085023 1.8384776310850237 0.0
    vertex -1.838477631085023 1.8384776310850237 1.5
  endloop
endfacet
facet normal 0.9238795325112866 -0.3826834323650906 0.0
  outer loop
    vertex -2.2516660498395398 1.3000000000000012 0.0
    vertex -2.511407148351577 0.672929517266556 1.5
    vertex -2.511407148351577 0.672929517266556 0.0
  endloop
endfacet
facet normal 0.9238795325112866 -0.3826834323650906 0.0
  outer loop
    vertex -2.511407148351577 0.672929517266556 1.5
    vertex -2.2516660498395398 1.3000000000000012 0.0
    vertex -2.2516660498395398 1.3000000000000012 1.5
  endloop
endfacet
facet normal 0.9914448613738104 -0.13052619222005177 0.0
  outer loop
    vertex -2.511407148351577 0.672929517266556 0.0
    vertex -2.5999999999999996 0.0 1.5
    vertex -2.5999999999999996 0.0 0.0
  endloop
endfacet
facet normal 0.9914448613738104 -0.13052619222005177 0.0
  outer loop
    vertex -2.5999999999999996 0.0 1.5
    vertex -2.511407148351577 0.672929517266556 0.0
    vertex -2.511407148351577 0.672929517266556 1.5
  endloop
endfacet
facet normal 0.9914448613738105 0.13052619222005166 0.0
  outer loop
    vertex -2.5999999999999996 0.0 0.0
    vertex -2.5114071483515774 -0.6729295172665539 1.5
    vertex -2.5114071483515774 -0.6729295172665539 0.0
  endloop
endfacet
facet normal 0.9914448613738105 0.13052619222005166 0.0
  outer loop
    vertex -2.5114071483515774 -0.6729295172665539 1.5
    vertex -2.5999999999999996 0.0 0.0
    vertex -2.5999999999999996 0.0 1.5
  endloop
endfacet
facet normal 0.9238795325112867 0.3826834323650897 0.0
  outer loop
    vertex -2.5114071483515774 -0.6729295172665539 0.0
    vertex -2.25166604983954 -1.2999999999999998 1.5
    vertex -2.25166604983954 -1.2999999999999998 0.0
  endloop
endfacet
facet normal 0.9238795325112867 0.3826834323650897 0.0
  outer loop
    vertex -2.25166604983954 -1.2999999999999998 1.5
    vertex -2.5114071483515774 -0.6729295172665539 0.0
    vertex -2.5114071483515774 -0.6729295172665539 1.5
  endloop
endfacet
facet normal 0.7933533402912355 0.6087614290087204 0.0
  outer loop
    vertex -2.25166604983954 -1.2999999999999998 0.0
    vertex -1.8384776310850237 -1.8384776310850233 1.5
    vertex -1.8384776310850237 -1.8384776310850233 0.0
  endloop
endfacet
facet normal 0.7933533402912355 0.6087614290087204 0.0
  outer loop
    vertex -1.8384776310850237 -1.8384776310850233 1.5
    vertex -2.25166604983954 -1.2999999999999998 0.0
    vertex -2.25166604983954 -1.2999999999999998 1.5
  endloop
endfacet
facet normal 0.13052619222005052 0.9914448613738107 -0.0
  outer loop
    vertex 69.32707048273345 -2.5114071483515734 6.0
    vertex 70.0 -2.599999999999995 0.0
    vertex 69.32707048273345 -2.5114071483515734 0.0
  endloop
endfacet
facet normal 0.13052619222005052 0.9914448613738107 -0.0
  outer loop
    vertex 70.0 -2.599999999999995 0.0
    vertex 69.32707048273345 -2.5114071483515734 6.0
    vertex 70.0 -2.599999999999995 6.0
  endloop
endfacet
facet normal -0.13052619222005202 0.9914448613738105 -0.0
  outer loop
    vertex 70.0 -2.599999999999995 6.0
    vertex 70.67292951726655 -2.5114071483515725 0.0
    vertex 70.0 -2.599999999999995 0.0
  endloop
endfacet
facet normal -0.13052619222005202 0.9914448613738105 -0.0
  outer loop
    vertex 70.67292951726655 -2.5114071483515725 0.0
    vertex 70.0 -2.599999999999995 6.0
    vertex 70.67292951726655 -2.5114071483515725 6.0
  endloop
endfacet
facet normal -0.3826834323650909 0.9238795325112864 -1.018891218562012e-31
  outer loop
    vertex 70.67292951726655 -2.5114071483515725 6.0
    vertex 71.3 -2.2516660498395358 0.0
    vertex 70.67292951726655 -2.5114071483515725 0.0
  endloop
endfacet
facet normal -0.3826834323650909 0.9238795325112864 -1.018891218562012e-31
  outer loop
    vertex 71.3 -2.2516660498395358 0.0
    vertex 70.67292951726655 -2.5114071483515725 6.0
    vertex 71.3 -2.2516660498395358 6.0
  endloop
endfacet
facet normal -0.6087614290087219 0.7933533402912343 -8.74941724753171e-32
  outer loop
    vertex 71.3 -2.2516660498395358 6.0
    vertex 71.83847763108501 -1.838477631085019 0.0
    vertex 71.3 -2.2516660498395358 0.0
  endloop
endfacet
facet normal -0.6087614290087219 0.7933533402912343 -8.74941724753171e-32
  outer loop
    vertex 71.83847763108501 -1.838477631085019 0.0
    vertex 71.3 -2.2516660498395358 6.0
    vertex 71.83847763108501 -1.838477631085019 6.0
  endloop
endfacet
facet normal -0.7933533402912313 0.608761429008726 -6.713663983119742e-32
  outer loop
    vertex 72.25166604983954 -1.299999999999997 6.0
    vertex 71.83847763108501 -1.838477631085019 0.0
    vertex 71.83847763108501 -1.838477631085019 6.0
  endloop
endfacet
facet normal -0.7933533402912313 0.608761429008726 -6.713663983119742e-32
  outer loop
    vertex 71.83847763108501 -1.838477631085019 0.0
    vertex 72.25166604983954 -1.299999999999997 6.0
    vertex 72.25166604983954 -1.299999999999997 0.0
  endloop
endfacet
facet normal -0.9238795325112887 0.38268343236508523 -4.220385613112302e-32
  outer loop
    vertex 72.51140714835157 -0.6729295172665517 6.0
    vertex 72.25166604983954 -1.299999999999997 0.0
    vertex 72.25166604983954 -1.299999999999997 6.0
  endloop
endfacet
facet normal -0.9238795325112887 0.38268343236508523 -4.220385613112302e-32
  outer loop
    vertex 72.25166604983954 -1.299999999999997 0.0
    vertex 72.51140714835157 -0.6729295172665517 6.0
    vertex 72.51140714835157 -0.6729295172665517 0.0
  endloop
endfacet
facet normal -0.9914448613738106 0.1305261922200505 -1.439494938088394e-32
  outer loop
    vertex 72.6 3.1840816777831123e-16 6.0
    vertex 72.51140714835157 -0.6729295172665517 0.0
    vertex 72.51140714835157 -0.6729295172665517 6.0
  endloop
endfacet
facet normal -0.9914448613738106 0.1305261922200505 -1.439494938088394e-32
  outer loop
    vertex 72.51140714835157 -0.6729295172665517 0.0
    vertex 72.6 3.1840816777831123e-16 6.0
    vertex 72.6 3.184081677783106e-16 0.0
  endloop
endfacet
facet normal -0.9914448613738106 -0.13052619222005027 1.439494938088387e-32
  outer loop
    vertex 72.6 3.1840816777831123e-16 6.0
    vertex 72.51140714835157 0.6729295172665535 0.0
    vertex 72.6 3.184081677783106e-16 0.0
  endloop
endfacet
facet normal -0.9914448613738106 -0.13052619222005027 1.439494938088387e-32
  outer loop
    vertex 72.51140714835157 0.6729295172665535 0.0
    vertex 72.6 3.1840816777831123e-16 6.0
    vertex 72.51140714835157 0.6729295172665535 6.0
  endloop
endfacet
facet normal -0.9238795325112887 -0.38268343236508534 4.2203856131122977e-32
  outer loop
    vertex 72.25166604983954 1.2999999999999985 6.0
    vertex 72.51140714835157 0.6729295172665535 0.0
    vertex 72.51140714835157 0.6729295172665535 6.0
  endloop
endfacet
facet normal -0.9238795325112887 -0.38268343236508534 4.2203856131122977e-32
  outer loop
    vertex 72.51140714835157 0.6729295172665535 0.0
    vertex 72.25166604983954 1.2999999999999985 6.0
    vertex 72.25166604983954 1.2999999999999985 0.0
  endloop
endfacet
facet normal -0.7933533402912307 -0.6087614290087263 6.71366398311974e-32
  outer loop
    vertex 71.83847763108501 1.8384776310850202 6.0
    vertex 72.25166604983954 1.2999999999999985 0.0
    vertex 72.25166604983954 1.2999999999999985 6.0
  endloop
endfacet
facet normal -0.7933533402912307 -0.6087614290087263 6.71366398311974e-32
  outer loop
    vertex 72.25166604983954 1.2999999999999985 0.0
    vertex 71.83847763108501 1.8384776310850202 6.0
    vertex 71.83847763108501 1.8384776310850202 0.0
  endloop
endfacet
facet normal -0.6087614290087215 -0.7933533402912344 8.749417247531709e-32
  outer loop
    vertex 71.83847763108501 1.8384776310850202 6.0
    vertex 71.3 2.2516660498395367 0.0
    vertex 71.83847763108501 1.8384776310850202 0.0
  endloop
endfacet
facet normal -0.6087614290087215 -0.7933533402912344 8.749417247531709e-32
  outer loop
    vertex 71.3 2.2516660498395367 0.0
    vertex 71.83847763108501 1.8384776310850202 6.0
    vertex 71.3 2.2516660498395367 6.0
  endloop
endfacet
facet normal -0.3826834323650909 -0.9238795325112864 1.0188912185620119e-31
  outer loop
    vertex 71.3 2.2516660498395367 6.0
    vertex 70.67292951726655 2.511407148351573 0.0
    vertex 71.3 2.2516660498395367 0.0
  endloop
endfacet
facet normal -0.3826834323650909 -0.9238795325112864 1.0188912185620119e-31
  outer loop
    vertex 70.67292951726655 2.511407148351573 0.0
    vertex 71.3 2.2516660498395367 6.0
    vertex 70.67292951726655 2.511407148351573 6.0
  endloop
endfacet
facet normal -0.130526192220051 -0.9914448613738105 1.093404959623203e-31
  outer loop
    vertex 70.67292951726655 2.511407148351573 6.0
    vertex 70.0 2.599999999999995 0.0
    vertex 70.67292951726655 2.511407148351573 0.0
  endloop
endfacet
facet normal -0.130526192220051 -0.9914448613738105 1.093404959623203e-31
  outer loop
    vertex 70.0 2.599999999999995 0.0
    vertex 70.67292951726655 2.511407148351573 6.0
    vertex 70.0 2.599999999999995 6.0
  endloop
endfacet
facet normal 0.13052619222005152 -0.9914448613738106 1.093404959623203e-31
  outer loop
    vertex 70.0 2.599999999999995 6.0
    vertex 69.32707048273345 2.511407148351573 0.0
    vertex 70.0 2.599999999999995 0.0
  endloop
endfacet
facet normal 0.13052619222005152 -0.9914448613738106 1.093404959623203e-31
  outer loop
    vertex 69.32707048273345 2.511407148351573 0.0
    vertex 70.0 2.599999999999995 6.0
    vertex 69.32707048273345 2.511407148351573 6.0
  endloop
endfacet
facet normal 0.3826834323650909 -0.9238795325112864 1.018891218562012e-31
  outer loop
    vertex 69.32707048273345 2.511407148351573 6.0
    vertex 68.7 2.251666049839536 0.0
    vertex 69.32707048273345 2.511407148351573 0.0
  endloop
endfacet
facet normal 0.3826834323650909 -0.9238795325112864 1.018891218562012e-31
  outer loop
    vertex 68.7 2.251666049839536 0.0
    vertex 69.32707048273345 2.511407148351573 6.0
    vertex 68.7 2.251666049839536 6.0
  endloop
endfacet
facet normal 0.6087614290087212 -0.7933533402912347 8.749417247531716e-32
  outer loop
    vertex 68.7 2.251666049839536 6.0
    vertex 68.16152236891497 1.8384776310850202 0.0
    vertex 68.7 2.251666049839536 0.0
  endloop
endfacet
facet normal 0.6087614290087212 -0.7933533402912347 8.749417247531716e-32
  outer loop
    vertex 68.16152236891497 1.8384776310850202 0.0
    vertex 68.7 2.251666049839536 6.0
    vertex 68.16152236891497 1.8384776310850202 6.0
  endloop
endfacet
facet normal 0.7933533402912314 -0.6087614290087255 6.713663983119737e-32
  outer loop
    vertex 68.16152236891497 1.8384776310850202 0.0
    vertex 67.74833395016046 1.2999999999999974 6.0
    vertex 67.74833395016046 1.2999999999999974 0.0
  endloop
endfacet
facet normal 0.7933533402912314 -0.6087614290087255 6.713663983119737e-32
  outer loop
    vertex 67.74833395016046 1.2999999999999974 6.0
    vertex 68.16152236891497 1.8384776310850202 0.0
    vertex 68.16152236891497 1.8384776310850202 6.0
  endloop
endfacet
facet normal 0.9238795325112886 -0.38268343236508545 4.220385613112304e-32
  outer loop
    vertex 67.74833395016046 1.2999999999999974 0.0
    vertex 67.48859285164842 0.6729295172665527 6.0
    vertex 67.48859285164842 0.6729295172665527 0.0
  endloop
endfacet
facet normal 0.9238795325112886 -0.38268343236508545 4.220385613112304e-32
  outer loop
    vertex 67.48859285164842 0.6729295172665527 6.0
    vertex 67.74833395016046 1.2999999999999974 0.0
    vertex 67.74833395016046 1.2999999999999974 6.0
  endloop
endfacet
facet normal 0.9914448613738106 -0.13052619222005035 1.4394949380883925e-32
  outer loop
    vertex 67.48859285164842 0.6729295172665527 0.0
    vertex 67.4 0.0 6.0
    vertex 67.4 -6.61703944750761e-31 0.0
  endloop
endfacet
facet normal 0.9914448613738106 -0.13052619222005035 1.4394949380883925e-32
  outer loop
    vertex 67.4 0.0 6.0
    vertex 67.48859285164842 0.6729295172665527 0.0
    vertex 67.48859285164842 0.6729295172665527 6.0
  endloop
endfacet
facet normal 0.9914448613738106 0.13052619222004994 -1.4394949380883832e-32
  outer loop
    vertex 67.4 -6.61703944750761e-31 0.0
    vertex 67.48859285164842 -0.6729295172665548 6.0
    vertex 67.48859285164842 -0.6729295172665548 0.0
  endloop
endfacet
facet normal 0.9914448613738106 0.13052619222004994 -1.4394949380883832e-32
  outer loop
    vertex 67.48859285164842 -0.6729295172665548 6.0
    vertex 67.4 -6.61703944750761e-31 0.0
    vertex 67.4 0.0 6.0
  endloop
endfacet
facet normal 0.9238795325112884 0.38268343236508584 -4.220385613112303e-32
  outer loop
    vertex 67.48859285164842 -0.6729295172665548 0.0
    vertex 67.74833395016046 -1.299999999999999 6.0
    vertex 67.74833395016046 -1.299999999999999 0.0
  endloop
endfacet
facet normal 0.9238795325112884 0.38268343236508584 -4.220385613112303e-32
  outer loop
    vertex 67.74833395016046 -1.299999999999999 6.0
    vertex 67.48859285164842 -0.6729295172665548 0.0
    vertex 67.48859285164842 -0.6729295172665548 6.0
  endloop
endfacet
facet normal 0.7933533402912307 0.6087614290087263 -6.71366398311974e-32
  outer loop
    vertex 67.74833395016046 -1.299999999999999 0.0
    vertex 68.16152236891497 -1.8384776310850206 6.0
    vertex 68.16152236891497 -1.8384776310850206 0.0
  endloop
endfacet
facet normal 0.7933533402912307 0.6087614290087263 -6.71366398311974e-32
  outer loop
    vertex 68.16152236891497 -1.8384776310850206 6.0
    vertex 67.74833395016046 -1.299999999999999 0.0
    vertex 67.74833395016046 -1.299999999999999 6.0
  endloop
endfacet
facet normal 0.6087614290087222 0.7933533402912339 -8.749417247531705e-32
  outer loop
    vertex 68.16152236891497 -1.8384776310850206 6.0
    vertex 68.7 -2.2516660498395376 0.0
    vertex 68.16152236891497 -1.8384776310850206 0.0
  endloop
endfacet
facet normal 0.6087614290087222 0.7933533402912339 -8.749417247531705e-32
  outer loop
    vertex 68.7 -2.2516660498395376 0.0
    vertex 68.16152236891497 -1.8384776310850206 6.0
    vertex 68.7 -2.2516660498395376 6.0
  endloop
endfacet
facet normal 0.3826834323650899 0.9238795325112866 -1.018891218562012e-31
  outer loop
    vertex 68.7 -2.2516660498395376 6.0
    vertex 69.32707048273345 -2.5114071483515734 0.0
    vertex 68.7 -2.2516660498395376 0.0
  endloop
endfacet
facet normal 0.3826834323650899 0.9238795325112866 -1.018891218562012e-31
  outer loop
    vertex 69.32707048273345 -2.5114071483515734 0.0
    vertex 68.7 -2.2516660498395376 6.0
    vertex 69.32707048273345 -2.5114071483515734 6.0
  endloop
endfacet
endsolid Coil Winder Crank
